<svg width="211" height="54" viewBox="0 0 211 54" fill="none" xmlns="http://www.w3.org/2000/svg">
<g id="&#208;&#161;&#208;&#187;&#208;&#190;&#208;&#185;_x0020_1">
<path id="Vector" d="M56.1574 15.677C56.724 15.677 57.357 15.729 57.8328 15.729C58.2685 15.729 59.1252 15.6895 59.4153 15.6895C59.5609 15.6895 59.7328 15.7415 59.7328 15.8331C59.7328 15.9101 59.679 15.9757 59.4153 16.0278C58.9405 16.1319 58.8488 16.2745 58.7559 16.7949C58.7032 17.1218 58.6768 19.2682 58.7433 20.6349C58.8087 22.0673 59.0197 22.4836 59.5208 22.9011C59.9966 23.2789 60.6296 23.3435 61.0379 23.3435C61.5918 23.3435 62.7533 23.1873 63.0698 21.8591C63.2418 21.17 63.3082 19.8678 63.3082 18.1627C63.3082 17.6152 63.2418 16.874 63.2281 16.7949C63.189 16.5347 62.9506 16.1454 62.1994 16.0142C62.134 16.0017 61.9346 15.9497 61.9346 15.8331C61.9346 15.754 62.0285 15.6895 62.2522 15.6895C62.5286 15.6895 63.1226 15.729 63.5593 15.729C64.0995 15.729 64.4287 15.6895 64.7589 15.6895C64.9435 15.6895 65.0617 15.754 65.0617 15.8456C65.0617 15.9237 64.9435 15.9892 64.7715 16.0278C64.0341 16.2099 63.9012 16.4577 63.8621 17.382C63.8094 18.6697 63.7946 19.8542 63.7566 20.61C63.6247 22.8095 62.9506 23.3435 62.1467 23.8244C61.6983 24.0596 60.906 24.1752 60.4576 24.1752C59.0598 24.1752 58.2685 23.7994 57.8454 23.3695C57.1207 22.6783 56.9751 22.0673 56.9487 20.3882C56.9223 18.9684 56.8696 16.7304 56.8569 16.6523C56.8168 16.3661 56.5932 16.1319 56.1184 16.0142C55.9844 15.9893 55.8272 15.9497 55.8272 15.8196C55.8272 15.7936 55.9317 15.677 56.1574 15.677ZM29.909 35.7649V36.0637C29.909 36.0637 29.5471 35.4901 29.0745 35.2257C29.0745 35.2257 29.4448 34.4013 28.2611 32.8607C28.2611 32.8607 27.1006 31.4398 27.9098 27.9184C28.6092 24.8695 29.6896 22.7813 29.6896 22.7813C29.6896 22.7813 29.7613 22.595 29.909 22.6252V35.7649ZM28.3244 34.9103C28.4077 34.9426 27.8581 34.774 27.4192 34.8073C24.5633 35.0227 24.5222 38.5151 24.5222 38.5151C26.0709 37.7489 27.6756 37.2191 27.6756 37.2191C27.6756 37.2191 27.5142 36.8725 26.9518 36.9787L26.015 37.2503C26.015 37.2503 26.2239 35.843 27.6545 35.7941C27.6545 35.7941 28.9669 35.5484 30.1991 37.6605C30.1991 37.6605 30.8121 37.7031 30.8121 36.7684V20.1238V18.9611C30.292 18.5312 29.5271 20.3362 29.5271 20.3362C27.4044 25.4513 26.9518 28.3826 26.8179 29.79C26.802 30.1876 26.7936 30.1657 26.8421 30.8819C26.916 31.9811 27.2757 32.5817 27.5205 33.0012C28.5618 34.1775 28.3244 34.9103 28.3244 34.9103ZM22.3541 37.1879C22.3541 37.1879 22.3077 37.598 22.1442 37.5949C22.1442 37.5949 21.9733 37.5907 21.948 37.1879C21.7465 31.0766 21.8404 24.1346 21.8404 24.1346C21.8404 21.1991 22.1031 16.8616 22.1516 16.1027C22.1991 16.8616 22.4607 21.1991 22.4607 24.1346C22.4596 33.1209 22.4871 33.0148 22.3541 37.1879ZM22.6316 39.9817C22.5419 39.709 22.4164 39.1927 22.5789 38.0113L22.6073 38.0071C22.8785 37.9696 25.0402 37.4367 25.0402 30.2594C25.0402 30.2594 24.5232 30.4634 23.9145 30.3583C24.2099 29.4069 25.1953 28.5846 25.1953 28.5846C25.1953 28.5846 25.7006 15.9528 23.9229 13.0549C23.5305 13.389 23.061 13.4691 23.061 13.4691C23.0853 12.9747 23.6149 11.9525 23.6149 11.9525C23.6149 11.9525 22.6379 6.62084 21.0502 7.09238C21.0502 7.09238 21.603 8.55906 20.6028 12.2231C20.6028 12.2231 19.6322 15.6895 19.4381 18.067C19.4381 18.067 19.1638 20.662 19.2577 22.4836C19.2577 22.4836 20.0163 23.4715 20.0964 24.0575C19.6945 24.1679 19.128 24.0575 19.128 24.0575C19.128 24.0575 18.7809 31.4013 19.8812 35.412C19.8812 35.412 20.3739 37.5595 21.6895 37.9998L21.7243 38.0113C21.8878 39.1917 21.7623 39.709 21.6716 39.9817C21.2306 40.0046 20.7273 40.0557 19.992 40.1368C19.992 40.1368 19.5647 40.3846 20.0437 40.801C20.0437 40.801 20.6123 41.1965 20.6651 41.5515C20.6651 41.5515 20.7484 41.9533 20.3602 42.3676C20.1513 42.5903 19.877 42.8162 19.4107 43.1524C19.4107 43.1524 17.3239 44.4036 17.3914 45.9307C17.3914 45.9307 18.2913 47.1809 21.9976 47.2131H22.2645C25.9971 47.1871 26.9012 45.9307 26.9012 45.9307C27.0183 44.4193 24.8819 43.1524 24.8819 43.1524C24.4146 42.8162 24.1403 42.5903 23.9303 42.3676C23.5421 41.9533 23.6265 41.5515 23.6265 41.5515C23.6771 41.1965 24.2468 40.801 24.2468 40.801C24.7268 40.3846 24.3639 40.1368 24.3639 40.1368C23.599 40.0546 23.081 40.0026 22.6316 39.9817ZM14.4701 22.6262C14.6199 22.595 14.6896 22.7824 14.6896 22.7824C14.6896 22.7824 15.7699 24.8705 16.4693 27.9194C17.2785 31.4398 16.117 32.8618 16.117 32.8618C14.9333 34.4013 15.3046 35.2268 15.3046 35.2268C14.832 35.4901 14.4701 36.0637 14.4701 36.0637V35.7649V22.6262ZM16.8586 33.0002C17.1024 32.5817 17.4632 31.9811 17.5381 30.8829C17.5855 30.1657 17.576 30.1886 17.5613 29.7889C17.4273 28.3826 16.9747 25.4503 14.851 20.3362C14.851 20.3362 14.0872 18.5302 13.567 18.9622V20.1228V36.7673C13.567 37.7031 14.18 37.6615 14.18 37.6615C15.4122 35.5484 16.7247 35.7951 16.7247 35.7951C18.1542 35.843 18.3652 37.2503 18.3652 37.2503L17.4273 36.9776C16.865 36.8714 16.7036 37.2201 16.7036 37.2201C16.7036 37.2201 18.3061 37.7479 19.8591 38.514C19.8591 38.514 19.8158 35.0227 16.9599 34.8073C16.521 34.775 15.9724 34.9436 16.0558 34.9103C16.0558 34.9103 15.8174 34.1775 16.8586 33.0002ZM22.504 46.3689C22.5493 46.0608 22.8226 45.9817 22.8226 45.9817C22.9777 45.9557 23.2604 45.9182 23.3269 45.9057C25.5118 45.4685 24.9632 44.5796 24.9632 44.5796C25.4231 44.4619 25.804 45.3332 25.804 45.3332C25.018 46.3429 22.504 46.3689 22.504 46.3689ZM20.7811 40.801C20.7811 40.801 21.3909 40.9467 22.4343 40.7729C22.4512 40.7687 21.143 41.7982 20.7811 40.801ZM38.0019 7.53582C38.0019 7.53582 36.8741 15.2002 40.0149 26.9336C40.0149 26.9336 44.9871 44.3505 37.4523 52.2991H4.57843C4.57843 52.2991 6.1124 50.9376 6.49326 46.6802C6.49326 46.6802 7.62211 39.0199 4.48031 27.2928C4.48031 27.2928 -0.605846 10.4817 6.92792 1.97723H39.6847C39.6847 1.97723 38.3838 3.27944 38.0019 7.53582ZM2.78176 52.0951C2.78176 52.0951 0.60002 52.2752 1.26256 47.9085H4.91075C4.27881 52.4542 2.78176 52.0951 2.78176 52.0951ZM41.6554 2.12401C41.6554 2.12401 43.8382 1.94288 43.1746 6.31064H39.5264C40.0138 1.93351 41.6554 2.12401 41.6554 2.12401ZM44.1927 7.40779C44.1927 7.40779 45.7446 0.71562 41.0551 0.747889H6.68632C-2.22949 9.0889 2.97377 26.8129 2.97377 26.8129C6.35822 40.1983 5.03736 46.8092 5.03736 46.8092H0.246594C0.246594 46.8092 -1.30637 53.5035 3.38206 53.4691H37.6348C46.6002 45.4196 41.4644 27.4125 41.4644 27.4125C38.0789 14.0198 39.4009 7.40779 39.4009 7.40779H44.1927ZM199.76 29.8149C200.136 29.8149 201.737 29.8951 202.619 29.8951C202.652 29.8951 202.783 29.944 202.897 30.0564C203.175 30.3625 203.616 30.7341 204.319 31.5554C205.135 32.5234 207.602 35.1664 208.663 36.3593C208.794 36.505 208.811 36.3593 208.827 36.2625C208.876 35.6494 208.876 33.3125 208.892 32.4589C208.892 31.9905 208.844 31.6043 208.794 31.1848C208.745 30.7497 208.532 30.4603 207.684 30.2823C207.307 30.2178 207.259 30.1376 207.259 30.0086C207.259 29.8795 207.471 29.8306 207.619 29.8306C208.092 29.8306 208.566 29.8951 209.121 29.8951C209.677 29.8951 210.168 29.8306 210.625 29.8306C210.887 29.8306 211 29.8951 211 30.0242C211 30.1054 210.836 30.2178 210.64 30.2667C209.742 30.4916 209.677 30.7664 209.579 31.3618C209.529 31.6845 209.431 33.8767 209.448 37.1181C209.448 37.5855 209.481 38.2611 209.481 39.76C209.481 39.8579 209.334 40.3575 209.252 40.3575C209.04 40.3575 208.794 40.1795 208.647 40.0026C208.353 39.6486 207.7 38.8263 207.373 38.4224C205.886 36.6018 202.668 32.9263 201.77 32.105C201.737 32.0384 201.639 32.0384 201.622 32.2164C201.589 32.6838 201.606 33.2802 201.589 34.5387C201.541 37.5376 201.622 38.0362 201.656 38.487C201.72 39.3093 202.325 39.4051 203.012 39.6632C203.224 39.7455 203.322 39.7933 203.322 39.8579C203.322 39.9859 203.142 40.1004 202.929 40.1004C202.423 40.1004 201.639 40.0348 201.051 40.0348C200.741 40.0348 200.152 40.1004 199.727 40.1004C199.596 40.1004 199.352 40.0515 199.352 39.9068C199.352 39.7278 199.613 39.6799 199.695 39.6632C200.495 39.4217 200.79 39.3572 200.855 38.1497C200.888 37.7458 201.051 34.7146 201.051 31.7001C201.051 30.8944 200.904 30.5884 200.332 30.4114C200.152 30.3469 199.973 30.299 199.662 30.2334C199.548 30.2178 199.368 30.1532 199.368 30.0086C199.368 29.9274 199.466 29.8149 199.76 29.8149ZM189.878 30.7976C189.322 31.3316 188.717 32.3933 188.717 34.6667C188.717 35.9731 189.175 37.4065 189.942 38.4079C190.613 39.2604 191.494 39.81 192.458 39.81C193.03 39.81 193.602 39.4873 193.88 39.2125C194.599 38.5349 195.023 37.0515 195.023 35.2955C195.023 34.1994 194.517 30.0887 191.478 30.0887C190.808 30.0887 190.106 30.5727 189.878 30.7976ZM197.539 34.9415C197.539 36.6809 196.74 38.0831 195.661 39.0366C194.828 39.7455 193.569 40.3263 191.969 40.3263C188.832 40.3263 186.268 38.132 186.268 34.8937C186.268 32.9419 186.986 31.8614 188.08 30.8944C188.767 30.3302 190.155 29.6047 191.854 29.6047C196.02 29.6047 197.539 32.7972 197.539 34.9415ZM180.647 31.5231C180.581 30.6706 180.581 30.4603 179.83 30.2657C179.503 30.1855 179.421 30.0721 179.421 29.9929C179.421 29.9274 179.551 29.8306 179.796 29.8306C180.189 29.8306 181.267 29.8961 181.824 29.8961C182.656 29.8961 183.179 29.8306 183.736 29.8306C183.897 29.8306 184.159 29.8795 184.159 30.0086C184.159 30.1376 184.011 30.2032 183.766 30.2657C183.212 30.3947 183.032 30.4759 182.982 31.3139C182.917 31.9749 182.901 32.8451 182.901 33.9745C182.901 36.5685 182.933 37.7614 182.967 38.1643C183.048 39.2292 183.13 39.4394 183.979 39.6486C184.159 39.6976 184.305 39.7611 184.305 39.9068C184.305 40.0338 184.127 40.0994 183.897 40.0994C183.277 40.0994 182.133 40.0338 181.839 40.0338C181.365 40.0338 180.352 40.0994 179.715 40.0994C179.536 40.0994 179.323 40.0515 179.323 39.8735C179.323 39.7933 179.486 39.6976 179.698 39.6486C180.581 39.3905 180.63 39.2937 180.662 38.2455C180.679 37.6001 180.679 35.6494 180.679 34.5533C180.679 33.4093 180.695 32.0561 180.647 31.5231ZM175.861 29.8784C176.416 29.8784 176.874 29.8149 177.102 29.6869C177.184 29.639 177.282 29.5412 177.379 29.5412C177.429 29.5412 177.543 29.7015 177.51 29.8628C177.379 30.3458 177.233 31.2827 177.233 31.7011C177.217 32.0228 177.053 32.1518 176.972 32.1518C176.89 32.1518 176.84 32.0082 176.743 31.7011C176.498 30.9756 176.432 30.5884 175.567 30.5405C175.076 30.5092 174.489 30.4915 173.704 30.4915C173.607 30.4915 173.492 30.7008 173.476 30.783C173.41 31.1859 173.41 31.6355 173.41 33.1668C173.41 35.1518 173.476 38.2767 173.492 38.438C173.524 39.455 173.965 39.455 174.668 39.631C174.897 39.6799 175.06 39.7611 175.06 39.8745C175.06 40.0192 174.864 40.0994 174.619 40.0994C174.57 40.0994 172.348 40.0338 172.136 40.0338C171.857 40.0338 170.126 40.116 169.849 40.116C169.554 40.116 169.44 40.0192 169.44 39.9068C169.44 39.7756 169.718 39.6965 169.799 39.6799C170.927 39.4696 170.927 39.2292 171.041 38.0529C171.123 37.0515 171.204 33.555 171.204 32.4277C171.204 31.4586 171.188 31.3784 171.188 30.7664C171.188 30.6529 171.123 30.4915 171.058 30.4915C170.861 30.4915 169.473 30.5092 169.21 30.5249C168.526 30.5884 168.314 30.8465 167.84 31.6678C167.708 31.926 167.577 32.0561 167.48 32.0561C167.349 32.0561 167.317 31.926 167.317 31.7646C167.414 31.138 167.642 30.4915 167.627 29.7015C167.627 29.5901 167.773 29.4433 167.84 29.4433C167.887 29.4433 167.903 29.46 168.002 29.5089C168.165 29.6213 168.314 29.8149 168.869 29.8483C169.13 29.8628 169.751 29.8961 170.927 29.8961L175.861 29.8784ZM162.284 35.1664C162.023 34.3774 161.484 32.894 161.239 32.2653C161.173 32.104 161.075 32.104 161.043 32.1997C160.929 32.5058 160.209 34.4086 160.062 35.183C160.046 35.2632 160.062 35.36 160.144 35.3767C160.618 35.3767 162.088 35.3923 162.252 35.3767C162.284 35.36 162.334 35.2798 162.284 35.1664ZM162.579 29.8961C162.611 30.0564 162.677 30.2022 162.758 30.4426C163.853 33.555 165.355 37.0692 165.666 37.9072C166.288 39.277 166.466 39.454 167.185 39.6799C167.446 39.7121 167.577 39.8423 167.577 39.9058C167.577 39.9859 167.496 40.1316 167.169 40.1316C166.745 40.1316 164.899 40.0348 164.539 40.0348C164.032 40.0348 163.476 40.1004 163.02 40.1004C162.725 40.1004 162.594 39.9859 162.594 39.9214C162.594 39.7933 162.708 39.7288 162.921 39.6643C163.624 39.4384 163.64 39.277 163.64 38.9866C163.64 38.7774 162.921 36.9235 162.775 36.4561C162.708 36.3437 162.627 36.1501 162.496 36.1501C162.121 36.1178 160.765 36.1178 159.85 36.1501C159.818 36.1501 159.687 36.2948 159.638 36.4405C159.377 37.1171 158.952 38.5515 158.952 38.8742C158.952 39.2448 159.165 39.4863 159.866 39.7121C160.209 39.809 160.259 39.8579 160.259 39.9536C160.274 40.0348 160.144 40.115 159.916 40.115C159.262 40.115 158.853 40.0348 158.233 40.0348C157.693 40.0348 157.236 40.115 156.812 40.115C156.632 40.115 156.452 40.0827 156.435 39.938C156.435 39.8256 156.566 39.7767 156.779 39.7288C157.644 39.5029 157.873 39.1646 158.347 38.132C158.805 37.1327 160.586 32.0717 161.075 30.604C161.124 30.4759 161.173 30.2334 161.173 30.1366C161.173 30.0564 161.189 30.0877 161.189 29.9752C161.189 29.8784 161.32 29.7671 161.386 29.7514C161.516 29.7025 162.284 29.6859 162.431 29.7348C162.48 29.7514 162.562 29.8306 162.579 29.8961ZM151.6 31.5231C151.535 30.6706 151.535 30.4603 150.783 30.2657C150.457 30.1855 150.375 30.0721 150.375 29.9929C150.375 29.9274 150.506 29.8306 150.75 29.8306C151.142 29.8306 152.221 29.8961 152.778 29.8961C153.609 29.8961 154.132 29.8306 154.689 29.8306C154.851 29.8306 155.112 29.8795 155.112 30.0086C155.112 30.1376 154.966 30.2032 154.721 30.2657C154.166 30.3947 153.986 30.4759 153.936 31.3139C153.871 31.9749 153.855 32.8451 153.855 33.9745C153.855 36.5685 153.887 37.7614 153.92 38.1643C154.001 39.2292 154.085 39.4394 154.933 39.6486C155.112 39.6976 155.26 39.7611 155.26 39.9068C155.26 40.0338 155.081 40.0994 154.851 40.0994C154.23 40.0994 153.087 40.0338 152.792 40.0338C152.319 40.0338 151.306 40.0994 150.669 40.0994C150.489 40.0994 150.277 40.0515 150.277 39.8735C150.277 39.7933 150.44 39.6976 150.653 39.6486C151.535 39.3905 151.583 39.2937 151.616 38.2455C151.633 37.6001 151.633 35.6494 151.633 34.5533C151.633 33.4093 151.649 32.0561 151.6 31.5231ZM146.422 29.8306C146.765 29.8961 147.207 29.9929 147.614 29.9929C147.664 30.0086 147.778 30.1689 147.812 30.2334C147.828 30.5082 147.974 31.9593 147.974 31.9749C148.007 32.5235 147.86 32.588 147.745 32.588C147.631 32.588 147.566 32.4277 147.484 32.1518C147.37 31.6532 147.125 31.265 146.619 30.8465C145.964 30.3458 145.001 30.0408 144.25 30.0408C141.963 30.0408 140.819 31.8625 140.819 34.393C140.819 35.4735 141.064 36.6664 141.456 37.4242C142.338 39.1969 143.726 39.809 144.919 39.809C145.54 39.809 145.997 39.6476 146.374 39.3905C146.929 39.0355 147.288 38.438 147.533 38.004C147.566 37.9707 147.745 37.4721 147.926 37.4721C148.088 37.4721 148.122 37.8104 148.088 37.9394C148.057 38.1008 147.909 39.0678 147.876 39.4384C147.876 39.5518 147.566 39.809 147.321 39.8891C147.256 39.9224 145.997 40.3253 144.445 40.3253C142.157 40.3253 140.525 39.5841 139.592 38.5525C138.988 37.8739 138.237 36.8111 138.237 34.8926C138.237 32.7337 139.397 31.5085 139.871 31.1036C141.211 29.9107 142.926 29.6047 144.331 29.6047C145.099 29.6047 145.883 29.7348 146.422 29.8306ZM127.864 30.7976C127.308 31.3316 126.703 32.3933 126.703 34.6667C126.703 35.9731 127.161 37.4065 127.928 38.4079C128.599 39.2604 129.481 39.81 130.444 39.81C131.017 39.81 131.588 39.4873 131.866 39.2125C132.585 38.5349 133.01 37.0515 133.01 35.2955C133.01 34.1994 132.503 30.0887 129.464 30.0887C128.795 30.0887 128.093 30.5727 127.864 30.7976ZM135.525 34.9415C135.525 36.6809 134.726 38.0831 133.647 39.0366C132.814 39.7455 131.555 40.3263 129.955 40.3263C126.818 40.3263 124.251 38.132 124.251 34.8937C124.251 32.9419 124.972 31.8614 126.066 30.8944C126.753 30.3302 128.141 29.6047 129.84 29.6047C134.006 29.6047 135.525 32.7972 135.525 34.9415ZM121.084 29.7348C121.198 29.766 121.312 29.944 121.312 30.0408C121.329 30.3302 121.493 31.5887 121.493 31.8291C121.493 31.9416 121.443 32.105 121.362 32.105C121.231 32.105 121.1 31.927 121.035 31.7323C120.594 30.4426 119.679 30.0231 118.682 30.0231C118.127 30.0231 117.244 30.604 117.244 31.4919C117.244 32.3944 117.767 33.0398 119.417 34.0869C121.819 35.6338 121.851 36.86 121.851 37.4554C121.851 38.2132 121.41 39.1969 120.398 39.7933C119.891 40.0994 118.895 40.3253 118.11 40.3253C117.097 40.3253 116.216 40.1316 115.447 39.8256C115.382 39.8089 115.268 39.5352 115.268 39.4863C115.186 38.8898 114.99 38.1497 114.99 37.6157C114.99 37.4065 115.039 37.2628 115.186 37.2628C115.317 37.2628 115.48 37.5199 116.052 38.665C116.379 39.3093 117.049 39.8412 118.143 39.8412C119.058 39.8412 119.744 38.9231 119.744 38.2299C119.744 37.7136 119.434 36.8902 117.996 35.9408C116.101 34.699 115.415 33.7955 115.415 32.588C115.415 31.5398 115.806 30.91 116.395 30.4114C116.869 29.9607 117.8 29.6057 119.042 29.6057C119.81 29.6057 120.74 29.7348 121.084 29.7348ZM111.968 29.7348C112.082 29.766 112.196 29.944 112.196 30.0408C112.213 30.3302 112.376 31.5887 112.376 31.8291C112.376 31.9416 112.327 32.105 112.246 32.105C112.115 32.105 111.984 31.927 111.918 31.7323C111.479 30.4426 110.563 30.0231 109.567 30.0231C109.01 30.0231 108.129 30.604 108.129 31.4919C108.129 32.3944 108.652 33.0398 110.301 34.0869C112.703 35.6338 112.736 36.86 112.736 37.4554C112.736 38.2132 112.295 39.1969 111.281 39.7933C110.776 40.0994 109.779 40.3253 108.995 40.3253C107.981 40.3253 107.098 40.1316 106.331 39.8256C106.265 39.8089 106.152 39.5352 106.152 39.4863C106.071 38.8898 105.873 38.1497 105.873 37.6157C105.873 37.4065 105.922 37.2628 106.071 37.2628C106.2 37.2628 106.364 37.5199 106.936 38.665C107.263 39.3093 107.933 39.8412 109.027 39.8412C109.942 39.8412 110.628 38.9231 110.628 38.2299C110.628 37.7136 110.318 36.8902 108.879 35.9408C106.985 34.699 106.3 33.7955 106.3 32.588C106.3 31.5398 106.691 30.91 107.28 30.4114C107.753 29.9607 108.684 29.6057 109.926 29.6057C110.694 29.6057 111.625 29.7348 111.968 29.7348ZM98.8818 35.1664C98.6202 34.3774 98.0811 32.894 97.8363 32.2653C97.7709 32.104 97.6728 32.104 97.6401 32.1997C97.5262 32.5058 96.8077 34.4086 96.66 35.183C96.6431 35.2632 96.66 35.36 96.7412 35.3767C97.2149 35.3767 98.6856 35.3923 98.8491 35.3767C98.8818 35.36 98.9314 35.2798 98.8818 35.1664ZM99.1762 29.8961C99.2089 30.0564 99.2743 30.2022 99.3555 30.4426C100.451 33.555 101.953 37.0692 102.264 37.9072C102.886 39.277 103.064 39.454 103.783 39.6799C104.044 39.7121 104.175 39.8423 104.175 39.9058C104.175 39.9859 104.094 40.1316 103.766 40.1316C103.341 40.1316 101.496 40.0348 101.136 40.0348C100.63 40.0348 100.074 40.1004 99.6172 40.1004C99.3228 40.1004 99.192 39.9859 99.192 39.9214C99.192 39.7933 99.307 39.7288 99.5191 39.6643C100.222 39.4384 100.238 39.277 100.238 38.9866C100.238 38.7774 99.5191 36.9235 99.3724 36.4561C99.307 36.3437 99.2247 36.1501 99.0939 36.1501C98.7183 36.1178 97.3626 36.1178 96.4479 36.1501C96.4152 36.1501 96.2844 36.2948 96.2359 36.4405C95.9742 37.1171 95.5491 38.5515 95.5491 38.8742C95.5491 39.2448 95.7622 39.4863 96.4638 39.7121C96.8077 39.809 96.8562 39.8579 96.8562 39.9536C96.872 40.0348 96.7412 40.115 96.5134 40.115C95.8592 40.115 95.451 40.0348 94.8306 40.0348C94.2915 40.0348 93.8337 40.115 93.4095 40.115C93.2291 40.115 93.0498 40.0827 93.0329 39.938C93.0329 39.8256 93.1637 39.7767 93.3768 39.7288C94.2419 39.5029 94.4709 39.1646 94.9446 38.132C95.4024 37.1327 97.1833 32.0717 97.6728 30.604C97.7224 30.4759 97.7709 30.2334 97.7709 30.1366C97.7709 30.0564 97.7878 30.0877 97.7878 29.9752C97.7878 29.8784 97.9176 29.7671 97.984 29.7514C98.1138 29.7025 98.8818 29.6859 99.0295 29.7348C99.0781 29.7514 99.1593 29.8306 99.1762 29.8961ZM82.8722 30.2511C82.7572 30.2511 82.562 30.2667 82.4312 30.3635C82.3331 30.4426 82.3162 30.6695 82.2677 31.0401C82.2191 31.6199 82.2023 33.732 82.235 34.521C82.235 34.6834 82.3816 34.7157 82.4143 34.7302C82.4966 34.7479 82.8068 34.7479 82.9207 34.7479C83.1665 34.7479 83.7215 34.7 83.9673 34.6032C84.3429 34.4096 84.9147 33.9745 84.9147 32.6848C84.9147 31.8937 84.4241 30.2511 82.8722 30.2511ZM85.3715 34.7646C85.3715 34.7792 85.323 34.7958 85.3557 34.876C85.7471 35.715 87.0869 38.2777 87.9035 39.1147C88.3772 39.5997 88.8192 39.6476 89.1452 39.7288C89.1938 39.7444 89.39 39.8256 89.39 39.9224C89.39 40.0192 89.2929 40.0827 89.1621 40.115C88.9659 40.1795 88.4595 40.1639 88.182 40.1639C87.3158 40.1639 86.1395 40.2774 85.2734 39.0033C84.8651 38.3891 84.1952 37.1338 83.5748 35.9898C83.2309 35.3767 82.9207 35.1674 82.4143 35.1674C82.3985 35.1674 82.3331 35.183 82.3004 35.1987C82.2677 35.2153 82.235 35.2465 82.235 35.2944C82.235 35.7795 82.2677 37.9072 82.3331 38.5036C82.4143 39.2458 82.5124 39.4207 83.3132 39.6643C83.5579 39.7288 83.6402 39.8579 83.6402 39.9058C83.6402 40.0348 83.444 40.0827 83.1992 40.0827C83.0515 40.0827 81.5977 40.0348 80.9436 40.0348C80.1925 40.0348 79.4244 40.0994 79.2778 40.0994C78.8526 40.0994 78.7883 39.987 78.7883 39.8891C78.7883 39.8412 78.9022 39.7288 79.0984 39.6788C79.9646 39.455 80.0944 39.2291 80.1112 38.5036C80.1271 37.4398 80.144 36.3916 80.144 33.8444C80.144 31.3951 80.1271 31.3128 80.0785 31.0245C80.0131 30.4281 79.6703 30.3802 79.147 30.2511C78.9676 30.2022 78.7883 30.1699 78.7883 30.0575C78.7883 29.9451 79.0162 29.8483 79.1966 29.8483C79.262 29.8483 80.4383 29.8784 80.471 29.8784C81.1072 29.8784 82.447 29.7837 83.329 29.7837C84.5222 29.7837 85.4854 29.9451 86.2208 30.4915C86.6459 30.7976 87.1196 31.4919 87.1196 32.3621C87.1196 33.6341 86.4339 34.3774 85.3715 34.7646ZM72.1555 35.1664C71.8938 34.3774 71.3547 32.894 71.11 32.2653C71.0446 32.104 70.9464 32.104 70.9137 32.1997C70.7988 32.5058 70.0803 34.4086 69.9337 35.183C69.9168 35.2632 69.9337 35.36 70.0149 35.3767C70.4886 35.3767 71.9593 35.3923 72.1228 35.3767C72.1555 35.36 72.204 35.2798 72.1555 35.1664ZM72.4488 29.8961C72.4825 30.0564 72.5479 30.2022 72.6292 30.4426C73.7243 33.555 75.2266 37.0692 75.5368 37.9072C76.1592 39.277 76.3375 39.454 77.056 39.6799C77.3176 39.7121 77.4484 39.8423 77.4484 39.9058C77.4484 39.9859 77.3672 40.1316 77.0401 40.1316C76.615 40.1316 74.7698 40.0348 74.41 40.0348C73.9036 40.0348 73.3476 40.1004 72.8908 40.1004C72.5965 40.1004 72.4657 39.9859 72.4657 39.9214C72.4657 39.7933 72.5796 39.7288 72.7927 39.6643C73.4953 39.4384 73.5112 39.277 73.5112 38.9866C73.5112 38.7774 72.7927 36.9235 72.6461 36.4561C72.5796 36.3437 72.4984 36.1501 72.3675 36.1501C71.992 36.1178 70.6363 36.1178 69.7216 36.1501C69.6878 36.1501 69.5581 36.2948 69.5085 36.4405C69.2468 37.1171 68.8227 38.5515 68.8227 38.8742C68.8227 39.2448 69.0348 39.4863 69.7374 39.7121C70.0803 39.809 70.1299 39.8579 70.1299 39.9536C70.1457 40.0348 70.0149 40.115 69.787 40.115C69.1329 40.115 68.7246 40.0348 68.1032 40.0348C67.5652 40.0348 67.1073 40.115 66.6821 40.115C66.5028 40.115 66.3234 40.0827 66.3066 39.938C66.3066 39.8256 66.4374 39.7767 66.6494 39.7288C67.5156 39.5029 67.7445 39.1646 68.2182 38.132C68.675 37.1327 70.4559 32.0717 70.9464 30.604C70.995 30.4759 71.0446 30.2334 71.0446 30.1366C71.0446 30.0564 71.0604 30.0877 71.0604 29.9752C71.0604 29.8784 71.1912 29.7671 71.2566 29.7514C71.3874 29.7025 72.1555 29.6859 72.3021 29.7348C72.3517 29.7514 72.4329 29.8306 72.4488 29.8961ZM60.0831 34.699C59.9038 34.699 59.7075 34.7157 59.5925 34.7646C59.5609 34.7792 59.4955 34.9572 59.4955 35.1352C59.4786 35.6671 59.5271 38.0206 59.5767 38.4068C59.6094 38.6972 59.6252 38.9866 59.8383 39.2125C60.1485 39.5029 60.6391 39.6799 60.8184 39.6799C61.6192 39.6799 62.5666 38.6171 62.5666 37.3274C62.5666 35.7795 61.4388 34.699 60.0831 34.699ZM60.1 30.1845C59.9692 30.1845 59.8056 30.2188 59.6906 30.2813C59.5767 30.3458 59.544 30.4426 59.5271 30.604C59.5113 31.0245 59.4628 33.7476 59.4955 34.1515C59.4955 34.1837 59.5925 34.2806 59.9196 34.2806C60.5241 34.2806 61.0959 34.0713 61.3407 33.8767C61.8639 33.5071 62.0602 32.7816 62.0602 32.3298C62.0602 30.8954 61.079 30.1845 60.1 30.1845ZM63.841 39.2614C63.073 39.8735 61.6192 40.0994 60.5726 40.0994C60.0831 40.0994 58.7928 40.0827 58.0575 40.0515C57.453 40.0348 56.5541 40.0994 56.3094 40.0994C56.0804 40.0994 55.8515 40.0515 55.8515 39.9058C55.8515 39.8256 55.9823 39.7288 56.1785 39.6965C57.2082 39.5029 57.1586 39.1969 57.224 38.665C57.2736 38.3589 57.3222 35.8919 57.3222 34.1515C57.3222 32.2174 57.2736 31.4919 57.2399 31.1682C57.1913 30.4759 56.9466 30.3312 56.1617 30.2334C55.9665 30.2188 55.7703 30.1543 55.7703 30.0086C55.7703 29.8961 56.0646 29.8472 56.1785 29.8472H57.4857C58.2864 29.8472 59.7888 29.7348 60.3933 29.7348C61.4884 29.7348 62.2722 29.8639 62.9917 30.2022C63.7429 30.5405 64.2324 31.3628 64.2324 32.1362C64.2324 33.2167 63.726 33.7642 62.8113 34.2316C62.6974 34.2805 62.7628 34.3451 62.8609 34.3607C64.4287 34.9415 64.9678 35.9086 64.9678 37.1015C64.9678 37.9394 64.4614 38.7295 63.841 39.2614ZM204.217 15.6884C204.574 15.6884 205.431 15.728 205.774 15.728C206.262 15.728 207.252 15.6884 207.542 15.6884C207.66 15.6884 207.857 15.7405 207.857 15.8581C207.857 15.9372 207.792 16.0017 207.528 16.0413C206.856 16.1454 206.842 16.391 206.789 17.0947C206.763 17.5111 206.737 17.9025 206.737 19.6336C206.737 21.1034 206.777 22.3671 206.816 22.8355C206.83 23.0562 207.053 23.382 207.291 23.408C207.699 23.434 208.215 23.4725 208.795 23.434C209.362 23.3945 209.746 23.0437 210.168 22.263C210.351 21.9507 210.444 21.8331 210.523 21.8331C210.549 21.8331 210.655 21.9122 210.655 22.0683C210.655 22.4056 210.418 23.3299 210.273 23.6953C210.258 23.7338 210.126 23.968 209.957 23.968C209.071 23.968 207.819 23.916 206.143 23.916C204.798 23.916 204.363 23.994 203.953 23.994C203.729 23.994 203.636 23.9555 203.636 23.8379C203.636 23.7734 203.729 23.7078 203.926 23.6693C204.666 23.5256 204.85 23.3684 204.903 22.7314C204.93 22.4711 204.956 21.4156 204.956 19.3213C204.956 17.7068 204.956 17.3674 204.943 16.9386C204.93 16.3536 204.798 16.1319 204.205 16.0278C203.965 15.9892 203.888 15.8976 203.888 15.8321C203.888 15.7665 204.019 15.6884 204.217 15.6884ZM198.502 19.9854C198.291 19.3463 197.857 18.1502 197.657 17.6412C197.605 17.5111 197.527 17.5111 197.499 17.5892C197.407 17.8369 196.827 19.3733 196.708 19.9989C196.695 20.0614 196.708 20.1415 196.774 20.1551C197.157 20.1551 198.344 20.1665 198.476 20.1551C198.502 20.1415 198.543 20.0749 198.502 19.9854ZM198.74 15.728C198.766 15.8581 198.819 15.9757 198.885 16.1714C199.77 18.6832 200.983 21.5197 201.233 22.1974C201.735 23.3039 201.88 23.4465 202.46 23.6297C202.671 23.6557 202.776 23.7598 202.776 23.8108C202.776 23.8775 202.711 23.994 202.447 23.994C202.104 23.994 200.614 23.916 200.323 23.916C199.915 23.916 199.466 23.968 199.096 23.968C198.859 23.968 198.754 23.8775 198.754 23.8254C198.754 23.7213 198.845 23.6693 199.017 23.6162C199.584 23.434 199.599 23.3039 199.599 23.0697C199.599 22.9011 199.017 21.4042 198.898 21.0263C198.845 20.9358 198.78 20.7796 198.674 20.7796C198.372 20.7526 197.275 20.7526 196.537 20.7796C196.511 20.7796 196.405 20.8952 196.366 21.0128C196.155 21.5603 195.81 22.7179 195.81 22.9781C195.81 23.2779 195.983 23.4725 196.55 23.6557C196.827 23.7338 196.866 23.7734 196.866 23.8514C196.88 23.916 196.774 23.9815 196.59 23.9815C196.062 23.9815 195.732 23.916 195.23 23.916C194.795 23.916 194.426 23.9815 194.082 23.9815C193.939 23.9815 193.793 23.9555 193.779 23.8379C193.779 23.7473 193.886 23.7078 194.056 23.6693C194.756 23.4861 194.941 23.2133 195.323 22.3806C195.693 21.5718 197.13 17.4851 197.527 16.3005C197.566 16.1974 197.605 16.0017 197.605 15.9237C197.605 15.8581 197.619 15.8841 197.619 15.7925C197.619 15.7155 197.725 15.6239 197.778 15.6114C197.882 15.5718 198.502 15.5593 198.622 15.5979C198.661 15.6114 198.727 15.6759 198.74 15.728ZM184.147 15.6634C184.451 15.6634 185.744 15.729 186.456 15.729C186.483 15.729 186.588 15.7675 186.681 15.8581C186.905 16.1048 187.261 16.4067 187.828 17.0697C188.488 17.8504 190.48 19.9844 191.338 20.9483C191.443 21.0648 191.456 20.9483 191.47 20.8702C191.509 20.3747 191.509 18.4875 191.523 17.7984C191.523 17.4205 191.482 17.1083 191.443 16.771C191.403 16.4171 191.232 16.1839 190.547 16.0413C190.244 15.9892 190.204 15.9237 190.204 15.8196C190.204 15.7155 190.375 15.677 190.494 15.677C190.876 15.677 191.259 15.729 191.708 15.729C192.157 15.729 192.551 15.677 192.92 15.677C193.131 15.677 193.224 15.729 193.224 15.8331C193.224 15.8966 193.092 15.9892 192.934 16.0278C192.209 16.2089 192.157 16.4306 192.077 16.9136C192.036 17.1738 191.957 18.9445 191.972 21.5603C191.972 21.9372 191.998 22.4836 191.998 23.6953C191.998 23.7723 191.878 24.1752 191.814 24.1752C191.641 24.1752 191.443 24.0325 191.324 23.8899C191.087 23.6026 190.56 22.9396 190.297 22.6127C189.095 21.144 186.497 18.1752 185.771 17.5111C185.744 17.459 185.665 17.459 185.651 17.6027C185.625 17.9795 185.639 18.4625 185.625 19.4774C185.586 21.8976 185.651 22.3015 185.678 22.6648C185.731 23.331 186.218 23.408 186.773 23.6162C186.945 23.6818 187.024 23.7203 187.024 23.7723C187.024 23.8764 186.878 23.967 186.708 23.967C186.298 23.967 185.665 23.9149 185.19 23.9149C184.939 23.9149 184.465 23.967 184.122 23.967C184.017 23.967 183.818 23.9285 183.818 23.8108C183.818 23.6682 184.03 23.6297 184.094 23.6162C184.742 23.4215 184.979 23.3695 185.032 22.3941C185.059 22.0673 185.19 19.62 185.19 17.1874C185.19 16.5347 185.071 16.288 184.61 16.1454C184.465 16.0933 184.32 16.0527 184.069 16.0007C183.976 15.9893 183.831 15.9372 183.831 15.8196C183.831 15.754 183.911 15.6634 184.147 15.6634ZM176.164 16.4577C175.715 16.8865 175.227 17.7463 175.227 19.5826C175.227 20.6349 175.596 21.7945 176.217 22.6013C176.757 23.2904 177.47 23.7338 178.247 23.7338C178.71 23.7338 179.173 23.4736 179.396 23.2508C179.977 22.7054 180.319 21.5072 180.319 20.0895C180.319 19.2047 179.91 15.8852 177.456 15.8852C176.916 15.8852 176.347 16.2755 176.164 16.4577ZM182.35 19.8022C182.35 21.2085 181.705 22.341 180.834 23.1082C180.161 23.6818 179.145 24.1502 177.853 24.1502C175.32 24.1502 173.249 22.3795 173.249 19.7637C173.249 18.1887 173.829 17.3154 174.712 16.5347C175.267 16.0798 176.388 15.4938 177.76 15.4938C181.124 15.4938 182.35 18.0722 182.35 19.8022ZM168.709 17.0427C168.656 16.3525 168.656 16.1849 168.05 16.0278C167.786 15.9622 167.72 15.8716 167.72 15.806C167.72 15.754 167.824 15.6759 168.023 15.6759C168.34 15.6759 169.21 15.728 169.66 15.728C170.333 15.728 170.754 15.6759 171.203 15.6759C171.334 15.6759 171.546 15.7155 171.546 15.8196C171.546 15.9237 171.428 15.9757 171.23 16.0278C170.78 16.1319 170.636 16.1974 170.596 16.874C170.543 17.407 170.53 18.1096 170.53 19.0215C170.53 21.1169 170.557 22.0808 170.583 22.4045C170.648 23.2664 170.715 23.434 171.402 23.6026C171.546 23.6422 171.665 23.6942 171.665 23.8108C171.665 23.916 171.52 23.967 171.334 23.967C170.833 23.967 169.911 23.916 169.672 23.916C169.291 23.916 168.472 23.967 167.958 23.967C167.812 23.967 167.64 23.9295 167.64 23.7858C167.64 23.7203 167.771 23.6422 167.944 23.6026C168.656 23.3945 168.698 23.3185 168.722 22.4711C168.736 21.9507 168.736 20.3747 168.736 19.4899C168.736 18.5666 168.75 17.4726 168.709 17.0427ZM164.842 15.7155C165.29 15.7155 165.66 15.6634 165.845 15.5593C165.911 15.5208 165.99 15.4407 166.07 15.4407C166.109 15.4407 166.201 15.5729 166.175 15.702C166.07 16.0933 165.95 16.848 165.95 17.1874C165.938 17.4466 165.806 17.5507 165.739 17.5507C165.674 17.5507 165.634 17.4341 165.555 17.1874C165.357 16.6003 165.305 16.288 164.606 16.2495C164.209 16.2224 163.734 16.2089 163.1 16.2089C163.023 16.2089 162.929 16.3786 162.916 16.4441C162.863 16.771 162.863 17.1353 162.863 18.3709C162.863 19.9719 162.916 22.4982 162.929 22.6273C162.955 23.4465 163.311 23.4465 163.879 23.5912C164.064 23.6297 164.196 23.6953 164.196 23.7858C164.196 23.9035 164.038 23.967 163.839 23.967C163.8 23.967 162.006 23.9149 161.834 23.9149C161.609 23.9149 160.211 23.9805 159.988 23.9805C159.75 23.9805 159.658 23.9035 159.658 23.8108C159.658 23.7067 159.882 23.6432 159.947 23.6297C160.858 23.46 160.858 23.2654 160.95 22.314C161.016 21.5083 161.082 18.6832 161.082 17.7713C161.082 16.9906 161.069 16.9271 161.069 16.4306C161.069 16.34 161.016 16.2089 160.963 16.2089C160.805 16.2089 159.685 16.2224 159.474 16.236C158.919 16.288 158.747 16.4962 158.365 17.1603C158.259 17.3674 158.154 17.4726 158.075 17.4726C157.969 17.4726 157.943 17.3674 157.943 17.2394C158.022 16.7294 158.207 16.2089 158.193 15.5729C158.193 15.4813 158.312 15.3647 158.365 15.3647C158.404 15.3647 158.418 15.3772 158.497 15.4167C158.629 15.5073 158.747 15.6634 159.195 15.6895C159.407 15.702 159.908 15.729 160.858 15.729L164.842 15.7155ZM153.878 19.9854C153.667 19.3463 153.23 18.1502 153.034 17.6412C152.981 17.5111 152.901 17.5111 152.875 17.5892C152.782 17.8369 152.203 19.3733 152.083 19.9989C152.071 20.0614 152.083 20.1415 152.15 20.1551C152.532 20.1551 153.72 20.1665 153.852 20.1551C153.878 20.1415 153.917 20.0749 153.878 19.9854ZM154.114 15.728C154.142 15.8581 154.195 15.9757 154.26 16.1714C155.144 18.6832 156.358 21.5197 156.608 22.1974C157.111 23.3039 157.256 23.4465 157.835 23.6297C158.046 23.6557 158.152 23.7598 158.152 23.8108C158.152 23.8775 158.086 23.994 157.823 23.994C157.48 23.994 155.989 23.916 155.698 23.916C155.289 23.916 154.84 23.968 154.471 23.968C154.234 23.968 154.128 23.8775 154.128 23.8254C154.128 23.7213 154.22 23.6693 154.392 23.6162C154.958 23.434 154.972 23.3039 154.972 23.0697C154.972 22.9011 154.392 21.4042 154.273 21.0263C154.22 20.9358 154.154 20.7796 154.049 20.7796C153.746 20.7526 152.65 20.7526 151.913 20.7796C151.886 20.7796 151.781 20.8952 151.741 21.0128C151.529 21.5603 151.186 22.7179 151.186 22.9781C151.186 23.2779 151.359 23.4725 151.925 23.6557C152.203 23.7338 152.242 23.7734 152.242 23.8514C152.254 23.916 152.15 23.9815 151.965 23.9815C151.438 23.9815 151.108 23.916 150.605 23.916C150.171 23.916 149.801 23.9815 149.458 23.9815C149.312 23.9815 149.167 23.9555 149.154 23.8379C149.154 23.7473 149.259 23.7078 149.431 23.6693C150.132 23.4861 150.315 23.2133 150.698 22.3806C151.067 21.5718 152.505 17.4851 152.901 16.3005C152.94 16.1974 152.981 16.0017 152.981 15.9237C152.981 15.8581 152.993 15.8841 152.993 15.7925C152.993 15.7155 153.098 15.6239 153.151 15.6114C153.258 15.5718 153.878 15.5593 153.996 15.5979C154.036 15.6114 154.102 15.6759 154.114 15.728ZM139.523 15.6634C139.825 15.6634 141.119 15.729 141.831 15.729C141.858 15.729 141.964 15.7675 142.057 15.8581C142.28 16.1048 142.637 16.4067 143.204 17.0697C143.864 17.8504 145.855 19.9844 146.712 20.9483C146.818 21.0648 146.831 20.9483 146.844 20.8702C146.883 20.3747 146.883 18.4875 146.897 17.7984C146.897 17.4205 146.858 17.1083 146.818 16.771C146.778 16.4171 146.607 16.1839 145.921 16.0413C145.618 15.9892 145.577 15.9237 145.577 15.8196C145.577 15.7155 145.749 15.677 145.868 15.677C146.251 15.677 146.633 15.729 147.082 15.729C147.53 15.729 147.927 15.677 148.296 15.677C148.507 15.677 148.6 15.729 148.6 15.8331C148.6 15.8966 148.467 15.9892 148.309 16.0278C147.583 16.2089 147.53 16.4306 147.451 16.9136C147.411 17.1738 147.333 18.9445 147.345 21.5603C147.345 21.9372 147.372 22.4836 147.372 23.6953C147.372 23.7723 147.253 24.1752 147.187 24.1752C147.016 24.1752 146.818 24.0325 146.7 23.8899C146.461 23.6026 145.935 22.9396 145.67 22.6127C144.471 21.144 141.87 18.1752 141.145 17.5111C141.119 17.459 141.04 17.459 141.026 17.6027C141.001 17.9795 141.013 18.4625 141.001 19.4774C140.961 21.8976 141.026 22.3015 141.053 22.6648C141.106 23.331 141.594 23.408 142.148 23.6162C142.32 23.6818 142.397 23.7203 142.397 23.7723C142.397 23.8764 142.254 23.967 142.081 23.967C141.673 23.967 141.04 23.9149 140.565 23.9149C140.315 23.9149 139.839 23.967 139.496 23.967C139.391 23.967 139.192 23.9285 139.192 23.8108C139.192 23.6682 139.403 23.6297 139.47 23.6162C140.117 23.4215 140.354 23.3695 140.407 22.3941C140.433 22.0673 140.565 19.62 140.565 17.1874C140.565 16.5347 140.445 16.288 139.985 16.1454C139.839 16.0933 139.694 16.0527 139.443 16.0007C139.351 15.9893 139.206 15.9372 139.206 15.8196C139.206 15.754 139.285 15.6634 139.523 15.6634ZM126.261 15.6634C126.565 15.6634 127.859 15.729 128.57 15.729C128.596 15.729 128.701 15.7675 128.795 15.8581C129.018 16.1048 129.376 16.4067 129.942 17.0697C130.602 17.8504 132.594 19.9844 133.452 20.9483C133.558 21.0648 133.57 20.9483 133.584 20.8702C133.623 20.3747 133.623 18.4875 133.637 17.7984C133.637 17.4205 133.597 17.1083 133.558 16.771C133.518 16.4171 133.347 16.1839 132.661 16.0413C132.358 15.9892 132.317 15.9237 132.317 15.8196C132.317 15.7155 132.488 15.677 132.608 15.677C132.99 15.677 133.373 15.729 133.821 15.729C134.27 15.729 134.665 15.677 135.035 15.677C135.246 15.677 135.338 15.729 135.338 15.8331C135.338 15.8966 135.207 15.9892 135.048 16.0278C134.322 16.2089 134.27 16.4306 134.192 16.9136C134.151 17.1738 134.071 18.9445 134.085 21.5603C134.085 21.9372 134.111 22.4836 134.111 23.6953C134.111 23.7723 133.992 24.1752 133.927 24.1752C133.755 24.1752 133.558 24.0325 133.438 23.8899C133.201 23.6026 132.675 22.9396 132.411 22.6127C131.209 21.144 128.611 18.1752 127.885 17.5111C127.859 17.459 127.779 17.459 127.766 17.6027C127.739 17.9795 127.753 18.4625 127.739 19.4774C127.7 21.8976 127.766 22.3015 127.792 22.6648C127.845 23.331 128.332 23.408 128.887 23.6162C129.059 23.6818 129.138 23.7203 129.138 23.7723C129.138 23.8764 128.992 23.967 128.822 23.967C128.411 23.967 127.779 23.9149 127.305 23.9149C127.054 23.9149 126.578 23.967 126.235 23.967C126.13 23.967 125.932 23.9285 125.932 23.8108C125.932 23.6682 126.143 23.6297 126.208 23.6162C126.856 23.4215 127.094 23.3695 127.146 22.3941C127.173 22.0673 127.305 19.62 127.305 17.1874C127.305 16.5347 127.185 16.288 126.724 16.1454C126.578 16.0933 126.433 16.0527 126.183 16.0007C126.09 15.9893 125.945 15.9372 125.945 15.8196C125.945 15.754 126.025 15.6634 126.261 15.6634ZM120.798 19.9854C120.586 19.3463 120.152 18.1502 119.953 17.6412C119.901 17.5111 119.823 17.5111 119.795 17.5892C119.703 17.8369 119.122 19.3733 119.003 19.9989C118.99 20.0614 119.003 20.1415 119.069 20.1551C119.453 20.1551 120.639 20.1665 120.771 20.1551C120.798 20.1415 120.837 20.0749 120.798 19.9854ZM121.035 15.728C121.061 15.8581 121.115 15.9757 121.181 16.1714C122.064 18.6832 123.279 21.5197 123.529 22.1974C124.03 23.3039 124.175 23.4465 124.755 23.6297C124.966 23.6557 125.072 23.7598 125.072 23.8108C125.072 23.8775 125.007 23.994 124.742 23.994C124.399 23.994 122.908 23.916 122.618 23.916C122.21 23.916 121.762 23.968 121.392 23.968C121.154 23.968 121.048 23.8775 121.048 23.8254C121.048 23.7213 121.141 23.6693 121.313 23.6162C121.88 23.434 121.894 23.3039 121.894 23.0697C121.894 22.9011 121.313 21.4042 121.194 21.0263C121.141 20.9358 121.075 20.7796 120.97 20.7796C120.668 20.7526 119.57 20.7526 118.832 20.7796C118.806 20.7796 118.7 20.8952 118.661 21.0128C118.45 21.5603 118.106 22.7179 118.106 22.9781C118.106 23.2779 118.278 23.4725 118.845 23.6557C119.122 23.7338 119.161 23.7734 119.161 23.8514C119.175 23.916 119.069 23.9815 118.885 23.9815C118.357 23.9815 118.028 23.916 117.525 23.916C117.09 23.916 116.721 23.9815 116.378 23.9815C116.233 23.9815 116.088 23.9555 116.075 23.8379C116.075 23.7473 116.181 23.7078 116.352 23.6693C117.051 23.4861 117.237 23.2133 117.619 22.3806C117.988 21.5718 119.426 17.4851 119.823 16.3005C119.862 16.1974 119.901 16.0017 119.901 15.9237C119.901 15.8581 119.914 15.8841 119.914 15.7925C119.914 15.7155 120.02 15.6239 120.073 15.6114C120.178 15.5718 120.798 15.5593 120.917 15.5979C120.956 15.6114 121.022 15.6759 121.035 15.728ZM112.169 17.0427C112.117 16.3525 112.117 16.1849 111.509 16.0278C111.245 15.9622 111.18 15.8716 111.18 15.806C111.18 15.754 111.285 15.6759 111.483 15.6759C111.799 15.6759 112.671 15.728 113.119 15.728C113.791 15.728 114.214 15.6759 114.663 15.6759C114.794 15.6759 115.005 15.7155 115.005 15.8196C115.005 15.9237 114.887 15.9757 114.689 16.0278C114.241 16.1319 114.095 16.1974 114.055 16.874C114.002 17.407 113.991 18.1096 113.991 19.0215C113.991 21.1169 114.017 22.0808 114.043 22.4045C114.109 23.2664 114.175 23.434 114.861 23.6026C115.005 23.6422 115.125 23.6942 115.125 23.8108C115.125 23.916 114.979 23.967 114.794 23.967C114.293 23.967 113.369 23.916 113.133 23.916C112.75 23.916 111.931 23.967 111.416 23.967C111.272 23.967 111.1 23.9295 111.1 23.7858C111.1 23.7203 111.233 23.6422 111.404 23.6026C112.117 23.3945 112.155 23.3185 112.183 22.4711C112.195 21.9507 112.195 20.3747 112.195 19.4899C112.195 18.5666 112.209 17.4726 112.169 17.0427ZM100.875 15.6634C101.178 15.6634 102.471 15.729 103.184 15.729C103.211 15.729 103.316 15.7675 103.409 15.8581C103.633 16.1048 103.989 16.4067 104.556 17.0697C105.216 17.8504 107.207 19.9844 108.065 20.9483C108.17 21.0648 108.183 20.9483 108.196 20.8702C108.235 20.3747 108.235 18.4875 108.249 17.7984C108.249 17.4205 108.21 17.1083 108.17 16.771C108.13 16.4171 107.959 16.1839 107.273 16.0413C106.969 15.9892 106.929 15.9237 106.929 15.8196C106.929 15.7155 107.101 15.677 107.221 15.677C107.604 15.677 107.985 15.729 108.434 15.729C108.882 15.729 109.279 15.677 109.648 15.677C109.859 15.677 109.952 15.729 109.952 15.8331C109.952 15.8966 109.819 15.9892 109.661 16.0278C108.935 16.2089 108.882 16.4306 108.803 16.9136C108.763 17.1738 108.685 18.9445 108.698 21.5603C108.698 21.9372 108.724 22.4836 108.724 23.6953C108.724 23.7723 108.605 24.1752 108.539 24.1752C108.368 24.1752 108.17 24.0325 108.052 23.8899C107.813 23.6026 107.287 22.9396 107.022 22.6127C105.823 21.144 103.222 18.1752 102.497 17.5111C102.471 17.459 102.392 17.459 102.378 17.6027C102.353 17.9795 102.365 18.4625 102.353 19.4774C102.313 21.8976 102.378 22.3015 102.406 22.6648C102.458 23.331 102.946 23.408 103.501 23.6162C103.673 23.6818 103.751 23.7203 103.751 23.7723C103.751 23.8764 103.606 23.967 103.433 23.967C103.025 23.967 102.392 23.9149 101.917 23.9149C101.666 23.9149 101.191 23.967 100.848 23.967C100.743 23.967 100.545 23.9285 100.545 23.8108C100.545 23.6682 100.756 23.6297 100.822 23.6162C101.468 23.4215 101.706 23.3695 101.758 22.3941C101.784 22.0673 101.917 19.62 101.917 17.1874C101.917 16.5347 101.797 16.288 101.337 16.1454C101.191 16.0933 101.046 16.0527 100.796 16.0007C100.703 15.9893 100.558 15.9372 100.558 15.8196C100.558 15.754 100.637 15.6634 100.875 15.6634ZM96.4279 17.0427C96.3752 16.3525 96.3752 16.1849 95.7685 16.0278C95.5048 15.9622 95.4372 15.8716 95.4372 15.806C95.4372 15.754 95.5438 15.6759 95.7421 15.6759C96.0586 15.6759 96.929 15.728 97.3785 15.728C98.0515 15.728 98.4725 15.6759 98.9209 15.6759C99.0527 15.6759 99.2648 15.7155 99.2648 15.8196C99.2648 15.9237 99.1466 15.9757 98.9472 16.0278C98.4989 16.1319 98.3543 16.1974 98.3142 16.874C98.2615 17.407 98.2488 18.1096 98.2488 19.0215C98.2488 21.1169 98.2752 22.0808 98.3016 22.4045C98.367 23.2664 98.4335 23.434 99.1203 23.6026C99.2648 23.6422 99.384 23.6942 99.384 23.8108C99.384 23.916 99.2384 23.967 99.0527 23.967C98.5516 23.967 97.6295 23.916 97.3911 23.916C97.0081 23.916 96.1905 23.967 95.6767 23.967C95.5312 23.967 95.3602 23.9295 95.3602 23.7858C95.3602 23.7203 95.49 23.6422 95.663 23.6026C96.3752 23.3945 96.4152 23.3185 96.4406 22.4711C96.4543 21.9507 96.4543 20.3747 96.4543 19.4899C96.4543 18.5666 96.468 17.4726 96.4279 17.0427ZM90.0019 19.9854C89.7909 19.3463 89.3541 18.1502 89.1568 17.6412C89.1041 17.5111 89.0249 17.5111 88.9986 17.5892C88.9057 17.8369 88.3265 19.3733 88.2073 19.9989C88.1947 20.0614 88.2073 20.1415 88.2738 20.1551C88.6557 20.1551 89.8436 20.1665 89.9755 20.1551C90.0019 20.1415 90.0409 20.0749 90.0019 19.9854ZM90.2382 15.728C90.2656 15.8581 90.3184 15.9757 90.3838 16.1714C91.2689 18.6832 92.4822 21.5197 92.7322 22.1974C93.2334 23.3039 93.38 23.4465 93.9592 23.6297C94.1702 23.6557 94.2757 23.7598 94.2757 23.8108C94.2757 23.8775 94.2103 23.994 93.9465 23.994C93.6037 23.994 92.1129 23.916 91.8218 23.916C91.4124 23.916 90.964 23.968 90.5948 23.968C90.3574 23.968 90.2519 23.8775 90.2519 23.8254C90.2519 23.7213 90.3437 23.6693 90.5157 23.6162C91.0822 23.434 91.0959 23.3039 91.0959 23.0697C91.0959 22.9011 90.5157 21.4042 90.3965 21.0263C90.3437 20.9358 90.2783 20.7796 90.1728 20.7796C89.87 20.7526 88.7739 20.7526 88.0364 20.7796C88.01 20.7796 87.9045 20.8952 87.8644 21.0128C87.6524 21.5603 87.3095 22.7179 87.3095 22.9781C87.3095 23.2779 87.4815 23.4725 88.0491 23.6557C88.3265 23.7338 88.3656 23.7734 88.3656 23.8514C88.3782 23.916 88.2738 23.9815 88.0892 23.9815C87.5617 23.9815 87.2304 23.916 86.7293 23.916C86.2946 23.916 85.9254 23.9815 85.5814 23.9815C85.4358 23.9815 85.2913 23.9555 85.2776 23.8379C85.2776 23.7473 85.3831 23.7078 85.5561 23.6693C86.2556 23.4861 86.4391 23.2133 86.8221 22.3806C87.1914 21.5718 88.6293 17.4851 89.0249 16.3005C89.064 16.1974 89.1041 16.0017 89.1041 15.9237C89.1041 15.8581 89.1167 15.8841 89.1167 15.7925C89.1167 15.7155 89.2222 15.6239 89.275 15.6114C89.3805 15.5718 90.0019 15.5593 90.12 15.5979C90.1601 15.6114 90.2255 15.6759 90.2382 15.728ZM79.7219 16.0142C79.6302 16.0142 79.4719 16.0278 79.3664 16.1048C79.2873 16.1704 79.2757 16.3525 79.2345 16.6534C79.1945 17.1218 79.1818 18.8268 79.2092 19.4639C79.2092 19.594 79.3274 19.62 79.3527 19.6336C79.4192 19.6461 79.6692 19.6461 79.762 19.6461C79.9604 19.6461 80.4088 19.6065 80.6071 19.5295C80.9099 19.3733 81.3709 19.0215 81.3709 17.9795C81.3709 17.3425 80.9763 16.0142 79.7219 16.0142ZM81.7412 19.6585C81.7412 19.6721 81.7022 19.6856 81.7286 19.7501C82.0451 20.4268 83.1264 22.4982 83.7858 23.1738C84.1688 23.5641 84.5243 23.6026 84.7881 23.6682C84.8282 23.6828 84.9864 23.7463 84.9864 23.8244C84.9864 23.9035 84.9073 23.9555 84.8018 23.9805C84.6435 24.0336 84.2353 24.019 84.0105 24.019C83.31 24.019 82.3616 24.1106 81.6621 23.0822C81.3329 22.5888 80.7917 21.5718 80.2906 20.6485C80.0121 20.1551 79.762 19.9844 79.3527 19.9844C79.34 19.9844 79.2873 19.9989 79.2609 20.0104C79.2345 20.0229 79.2092 20.051 79.2092 20.0884C79.2092 20.4788 79.2345 22.1963 79.2873 22.6793C79.3527 23.2779 79.4339 23.4215 80.0796 23.6162C80.2769 23.6682 80.3433 23.7723 80.3433 23.8108C80.3433 23.916 80.1851 23.9555 79.9868 23.9555C79.8686 23.9555 78.6944 23.916 78.1669 23.916C77.5581 23.916 76.9389 23.967 76.8196 23.967C76.4778 23.967 76.4251 23.8764 76.4251 23.7983C76.4251 23.7588 76.5169 23.6682 76.6751 23.6297C77.3746 23.4465 77.4801 23.2654 77.4927 22.6793C77.5054 21.8206 77.5191 20.9743 77.5191 18.9174C77.5191 16.9386 77.5054 16.874 77.4664 16.6398C77.4136 16.1568 77.1361 16.1183 76.7141 16.0142C76.5696 15.9757 76.4251 15.9487 76.4251 15.8581C76.4251 15.7675 76.6087 15.6884 76.7542 15.6884C76.807 15.6884 77.7565 15.7155 77.7829 15.7155C78.2977 15.7155 79.3812 15.6364 80.0923 15.6364C81.0555 15.6364 81.8341 15.7675 82.427 16.2089C82.7699 16.4566 83.1518 17.0177 83.1518 17.7193C83.1518 18.7488 82.5989 19.3473 81.7412 19.6585ZM66.449 15.677C66.7539 15.677 67.505 15.729 67.9397 15.729C68.3353 15.729 69.3523 15.677 69.6161 15.677C69.9052 15.677 69.9052 15.806 69.9052 15.8196C69.9052 15.9497 69.6952 16.0017 69.6551 16.0142C69.0622 16.1579 68.9567 16.1839 68.9303 16.9646C68.904 17.5902 68.904 18.7738 68.904 19.3213C68.904 19.517 68.9567 19.569 68.9958 19.569C69.0358 19.569 69.2468 19.4129 69.3123 19.3463C70.248 18.552 71.225 17.6287 71.8443 16.9386C72.2536 16.5222 72.3327 16.1839 71.6206 16.0413C71.4623 16.0142 71.3706 15.9101 71.3706 15.8331C71.3706 15.7811 71.4761 15.703 71.6607 15.703C71.8443 15.703 72.5184 15.729 72.703 15.729C72.9404 15.7415 74.141 15.6374 74.5641 15.6374C74.7751 15.6374 74.8668 15.7155 74.8668 15.7811C74.8668 15.8716 74.7613 15.9497 74.524 15.9892C73.7844 16.1319 73.2168 16.4181 72.4245 17.0552C71.858 17.4996 71.225 18.0836 70.5656 18.7602C70.5255 18.8008 70.5118 18.8393 70.5656 18.957C70.8694 19.3983 72.2663 21.3001 73.0987 22.263C73.8245 23.1217 74.1009 23.46 75.0114 23.6162C75.196 23.6432 75.3542 23.7473 75.3542 23.8119C75.3542 23.9555 75.1306 24.0201 74.8932 24.0201C74.141 24.0201 73.2305 23.916 72.5047 23.916C72.0299 23.916 71.6206 23.9555 71.3041 23.9555C71.1722 23.9555 70.9876 23.8764 70.9876 23.7994C70.9876 23.6557 71.1596 23.6037 71.2514 23.5912C71.5678 23.5391 71.7261 23.4215 71.5415 23.1478C70.9486 22.3275 69.4441 20.2977 69.1941 20.0239C69.0622 19.8938 69.0474 19.8542 68.9831 19.8542C68.9303 19.8542 68.904 19.9334 68.904 20.076C68.904 21.5343 68.8892 22.1974 68.9567 22.8219C69.0095 23.2654 69.1804 23.4736 69.7079 23.5912C69.9579 23.6297 70.0107 23.7598 70.0107 23.7723C70.0107 23.8639 69.8661 23.9555 69.6815 23.9555C69.4315 23.9555 68.0726 23.916 67.6759 23.916C67.294 23.916 66.7138 23.968 66.3034 23.968C66.2253 23.968 65.9742 23.916 65.9742 23.8119C65.9742 23.7078 66.0924 23.6432 66.3034 23.6037C66.9775 23.4475 67.083 23.383 67.1094 22.4181C67.1358 21.5864 67.1622 20.713 67.1622 19.4774C67.1622 18.8008 67.1885 17.8754 67.1474 17.1218C67.0946 16.3661 67.0567 16.1454 66.5144 16.0413C66.2116 15.9757 66.1451 15.9101 66.1451 15.8331C66.1451 15.703 66.3561 15.677 66.449 15.677Z" fill="#1E1E1E"/>
</g>
</svg>
