<svg width="211" height="54" viewBox="0 0 211 54" fill="none" xmlns="http://www.w3.org/2000/svg">
<g id="&#208;&#161;&#208;&#187;&#208;&#190;&#208;&#185;_x0020_1">
<path id="Vector" d="M56.1574 15.1309C56.724 15.1309 57.357 15.1837 57.8328 15.1837C58.2685 15.1837 59.1252 15.1436 59.4153 15.1436C59.5609 15.1436 59.7328 15.1964 59.7328 15.2892C59.7328 15.3673 59.679 15.4337 59.4153 15.4865C58.9405 15.592 58.8488 15.7365 58.7559 16.264C58.7032 16.5953 58.6768 18.7707 58.7433 20.1559C58.8087 21.6076 59.0197 22.0296 59.5208 22.4527C59.9966 22.8356 60.6296 22.901 61.0379 22.901C61.5918 22.901 62.7533 22.7428 63.0698 21.3966C63.2418 20.6982 63.3082 19.3784 63.3082 17.6503C63.3082 17.0954 63.2418 16.3442 63.2281 16.264C63.189 16.0003 62.9506 15.6057 62.1994 15.4728C62.134 15.4601 61.9346 15.4074 61.9346 15.2892C61.9346 15.209 62.0285 15.1436 62.2522 15.1436C62.5286 15.1436 63.1226 15.1837 63.5593 15.1837C64.0995 15.1837 64.4287 15.1436 64.7589 15.1436C64.9435 15.1436 65.0617 15.209 65.0617 15.3019C65.0617 15.381 64.9435 15.4474 64.7715 15.4865C64.0341 15.6711 63.9012 15.9222 63.8621 16.859C63.8094 18.1641 63.7946 19.3647 63.7566 20.1306C63.6247 22.3598 62.9506 22.901 62.1467 23.3884C61.6983 23.6269 60.906 23.744 60.4576 23.744C59.0598 23.744 58.2685 23.3631 57.8454 22.9274C57.1207 22.2269 56.9751 21.6076 56.9487 19.9059C56.9223 18.4669 56.8696 16.1986 56.8569 16.1195C56.8168 15.8294 56.5932 15.592 56.1184 15.4728C55.9844 15.4474 55.8272 15.4074 55.8272 15.2755C55.8272 15.2491 55.9317 15.1309 56.1574 15.1309ZM29.909 35.4904V35.7932C29.909 35.7932 29.5471 35.2118 29.0745 34.9439C29.0745 34.9439 29.4448 34.1083 28.2611 32.5469C28.2611 32.5469 27.1006 31.1068 27.9098 27.5378C28.6092 24.4477 29.6896 22.3313 29.6896 22.3313C29.6896 22.3313 29.7613 22.1425 29.909 22.1731V35.4904ZM28.3244 34.6242C28.4077 34.6569 27.8581 34.486 27.4192 34.5198C24.5633 34.7382 24.5222 38.2777 24.5222 38.2777C26.0709 37.5012 27.6756 36.9642 27.6756 36.9642C27.6756 36.9642 27.5142 36.6129 26.9518 36.7205L26.015 36.9958C26.015 36.9958 26.2239 35.5695 27.6545 35.5199C27.6545 35.5199 28.9669 35.2709 30.1991 37.4115C30.1991 37.4115 30.8121 37.4548 30.8121 36.5074V19.6379V18.4595C30.292 18.0238 29.5271 19.8531 29.5271 19.8531C27.4044 25.0374 26.9518 28.0083 26.8179 29.4347C26.802 29.8377 26.7936 29.8155 26.8421 30.5414C26.916 31.6554 27.2757 32.2642 27.5205 32.6893C28.5618 33.8815 28.3244 34.6242 28.3244 34.6242ZM22.3541 36.9326C22.3541 36.9326 22.3077 37.3482 22.1442 37.3451C22.1442 37.3451 21.9733 37.3408 21.948 36.9326C21.7465 30.7386 21.8404 23.7028 21.8404 23.7028C21.8404 20.7277 22.1031 16.3315 22.1516 15.5624C22.1991 16.3315 22.4607 20.7277 22.4607 23.7028C22.4596 32.8107 22.4871 32.7031 22.3541 36.9326ZM22.6316 39.7642C22.5419 39.4878 22.4164 38.9645 22.5789 37.7671L22.6073 37.7628C22.8785 37.7249 25.0402 37.1847 25.0402 29.9105C25.0402 29.9105 24.5232 30.1172 23.9145 30.0107C24.2099 29.0464 25.1953 28.213 25.1953 28.213C25.1953 28.213 25.7006 15.4105 23.9229 12.4734C23.5305 12.8121 23.061 12.8933 23.061 12.8933C23.0853 12.3922 23.6149 11.3562 23.6149 11.3562C23.6149 11.3562 22.6379 5.95244 21.0502 6.43035C21.0502 6.43035 21.603 7.91685 20.6028 11.6305C20.6028 11.6305 19.6322 15.1436 19.4381 17.5532C19.4381 17.5532 19.1638 20.1833 19.2577 22.0296C19.2577 22.0296 20.0163 23.0308 20.0964 23.6248C19.6945 23.7366 19.128 23.6248 19.128 23.6248C19.128 23.6248 18.7809 31.0678 19.8812 35.1327C19.8812 35.1327 20.3739 37.3092 21.6895 37.7555L21.7243 37.7671C21.8878 38.9634 21.7623 39.4878 21.6716 39.7642C21.2306 39.7874 20.7273 39.8391 19.992 39.9214C19.992 39.9214 19.5647 40.1725 20.0437 40.5945C20.0437 40.5945 20.6123 40.9954 20.6651 41.3551C20.6651 41.3551 20.7484 41.7624 20.3602 42.1822C20.1513 42.408 19.877 42.6369 19.4107 42.9777C19.4107 42.9777 17.3239 44.2458 17.3914 45.7935C17.3914 45.7935 18.2913 47.0606 21.9976 47.0933H22.2645C25.9971 47.0669 26.9012 45.7935 26.9012 45.7935C27.0183 44.2616 24.8819 42.9777 24.8819 42.9777C24.4146 42.6369 24.1403 42.408 23.9303 42.1822C23.5421 41.7624 23.6265 41.3551 23.6265 41.3551C23.6771 40.9954 24.2468 40.5945 24.2468 40.5945C24.7268 40.1725 24.3639 39.9214 24.3639 39.9214C23.599 39.838 23.081 39.7853 22.6316 39.7642ZM14.4701 22.1741C14.6199 22.1425 14.6896 22.3324 14.6896 22.3324C14.6896 22.3324 15.7699 24.4487 16.4693 27.5388C17.2785 31.1068 16.117 32.548 16.117 32.548C14.9333 34.1083 15.3046 34.9449 15.3046 34.9449C14.832 35.2118 14.4701 35.7932 14.4701 35.7932V35.4904V22.1741ZM16.8586 32.6883C17.1024 32.2642 17.4632 31.6554 17.5381 30.5424C17.5855 29.8155 17.576 29.8387 17.5613 29.4336C17.4273 28.0083 16.9747 25.0364 14.851 19.8531C14.851 19.8531 14.0872 18.0227 13.567 18.4605V19.6369V36.5063C13.567 37.4548 14.18 37.4126 14.18 37.4126C15.4122 35.2709 16.7247 35.521 16.7247 35.521C18.1542 35.5695 18.3652 36.9958 18.3652 36.9958L17.4273 36.7194C16.865 36.6118 16.7036 36.9653 16.7036 36.9653C16.7036 36.9653 18.3061 37.5001 19.8591 38.2766C19.8591 38.2766 19.8158 34.7382 16.9599 34.5198C16.521 34.4871 15.9724 34.658 16.0558 34.6242C16.0558 34.6242 15.8174 33.8815 16.8586 32.6883ZM22.504 46.2377C22.5493 45.9254 22.8226 45.8452 22.8226 45.8452C22.9777 45.8188 23.2604 45.7808 23.3269 45.7682C25.5118 45.3251 24.9632 44.4241 24.9632 44.4241C25.4231 44.3049 25.804 45.1879 25.804 45.1879C25.018 46.2113 22.504 46.2377 22.504 46.2377ZM20.7811 40.5945C20.7811 40.5945 21.3909 40.7422 22.4343 40.566C22.4512 40.5618 21.143 41.6052 20.7811 40.5945ZM38.0019 6.87978C38.0019 6.87978 36.8741 14.6478 40.0149 26.5397C40.0149 26.5397 44.9871 44.192 37.4523 52.248H4.57843C4.57843 52.248 6.1124 50.8681 6.49326 46.5531C6.49326 46.5531 7.62211 38.7894 4.48031 26.9037C4.48031 26.9037 -0.605846 9.86544 6.92792 1.24608H39.6847C39.6847 1.24608 38.3838 2.56588 38.0019 6.87978ZM2.78176 52.0412C2.78176 52.0412 0.60002 52.2237 1.26256 47.798H4.91075C4.27881 52.4052 2.78176 52.0412 2.78176 52.0412ZM41.6554 1.39483C41.6554 1.39483 43.8382 1.21126 43.1746 5.63805H39.5264C40.0138 1.20177 41.6554 1.39483 41.6554 1.39483ZM44.1927 6.75002C44.1927 6.75002 45.7446 -0.0325871 41.0551 0.000117896H6.68632C-2.22949 8.45384 2.97377 26.4174 2.97377 26.4174C6.35822 39.9836 5.03736 46.6839 5.03736 46.6839H0.246594C0.246594 46.6839 -1.30637 53.4686 3.38206 53.4338H37.6348C46.6002 45.2755 41.4644 27.025 41.4644 27.025C38.0789 13.4514 39.4009 6.75002 39.4009 6.75002H44.1927ZM199.76 29.46C200.136 29.46 201.737 29.5412 202.619 29.5412C202.652 29.5412 202.783 29.5908 202.897 29.7047C203.175 30.0149 203.616 30.3915 204.319 31.2239C205.135 32.2051 207.602 34.8837 208.663 36.0928C208.794 36.2405 208.811 36.0928 208.827 35.9947C208.876 35.3733 208.876 33.0048 208.892 32.1397C208.892 31.6649 208.844 31.2735 208.794 30.8484C208.745 30.4074 208.532 30.1141 207.684 29.9337C207.307 29.8683 207.259 29.787 207.259 29.6562C207.259 29.5254 207.471 29.4758 207.619 29.4758C208.092 29.4758 208.566 29.5412 209.121 29.5412C209.677 29.5412 210.168 29.4758 210.625 29.4758C210.887 29.4758 211 29.5412 211 29.672C211 29.7543 210.836 29.8683 210.64 29.9179C209.742 30.1457 209.677 30.4242 209.579 31.0277C209.529 31.3548 209.431 33.5766 209.448 36.8619C209.448 37.3356 209.481 38.0203 209.481 39.5395C209.481 39.6386 209.334 40.145 209.252 40.145C209.04 40.145 208.794 39.9646 208.647 39.7853C208.353 39.4266 207.7 38.5931 207.373 38.1838C205.886 36.3386 202.668 32.6134 201.77 31.781C201.737 31.7135 201.639 31.7135 201.622 31.8939C201.589 32.3676 201.606 32.9721 201.589 34.2476C201.541 37.287 201.622 37.7924 201.656 38.2492C201.72 39.0826 202.325 39.1797 203.012 39.4413C203.224 39.5247 203.322 39.5732 203.322 39.6386C203.322 39.7684 203.142 39.8844 202.929 39.8844C202.423 39.8844 201.639 39.818 201.051 39.818C200.741 39.818 200.152 39.8844 199.727 39.8844C199.596 39.8844 199.352 39.8349 199.352 39.6882C199.352 39.5068 199.613 39.4582 199.695 39.4413C200.495 39.1966 200.79 39.1312 200.855 37.9074C200.888 37.498 201.051 34.4259 201.051 31.3706C201.051 30.554 200.904 30.2438 200.332 30.0645C200.152 29.9991 199.973 29.9506 199.662 29.8841C199.548 29.8683 199.368 29.8029 199.368 29.6562C199.368 29.5739 199.466 29.46 199.76 29.46ZM189.878 30.4559C189.322 30.9971 188.717 32.0732 188.717 34.3773C188.717 35.7014 189.175 37.1541 189.942 38.169C190.613 39.0331 191.494 39.5901 192.458 39.5901C193.03 39.5901 193.602 39.2631 193.88 38.9845C194.599 38.2977 195.023 36.7943 195.023 35.0146C195.023 33.9036 194.517 29.7374 191.478 29.7374C190.808 29.7374 190.106 30.228 189.878 30.4559ZM197.539 34.6559C197.539 36.4188 196.74 37.8399 195.661 38.8062C194.828 39.5247 193.569 40.1134 191.969 40.1134C188.832 40.1134 186.268 37.8894 186.268 34.6073C186.268 32.6292 186.986 31.5341 188.08 30.554C188.767 29.9822 190.155 29.2469 191.854 29.2469C196.02 29.2469 197.539 32.4826 197.539 34.6559ZM180.647 31.1912C180.581 30.3272 180.581 30.1141 179.83 29.9168C179.503 29.8356 179.421 29.7206 179.421 29.6404C179.421 29.5739 179.551 29.4758 179.796 29.4758C180.189 29.4758 181.267 29.5423 181.824 29.5423C182.656 29.5423 183.179 29.4758 183.736 29.4758C183.897 29.4758 184.159 29.5254 184.159 29.6562C184.159 29.787 184.011 29.8535 183.766 29.9168C183.212 30.0476 183.032 30.1299 182.982 30.9792C182.917 31.6491 182.901 32.5311 182.901 33.6758C182.901 36.3048 182.933 37.5139 182.967 37.9221C183.048 39.0014 183.13 39.2145 183.979 39.4266C184.159 39.4762 184.305 39.5405 184.305 39.6882C184.305 39.8169 184.127 39.8834 183.897 39.8834C183.277 39.8834 182.133 39.8169 181.839 39.8169C181.365 39.8169 180.352 39.8834 179.715 39.8834C179.536 39.8834 179.323 39.8349 179.323 39.6545C179.323 39.5732 179.486 39.4762 179.698 39.4266C180.581 39.1649 180.63 39.0668 180.662 38.0044C180.679 37.3503 180.679 35.3733 180.679 34.2623C180.679 33.1029 180.695 31.7314 180.647 31.1912ZM175.861 29.5243C176.416 29.5243 176.874 29.46 177.102 29.3302C177.184 29.2817 177.282 29.1825 177.379 29.1825C177.429 29.1825 177.543 29.345 177.51 29.5085C177.379 29.998 177.233 30.9475 177.233 31.3716C177.217 31.6976 177.053 31.8285 176.972 31.8285C176.89 31.8285 176.84 31.6829 176.743 31.3716C176.498 30.6363 176.432 30.2438 175.567 30.1953C175.076 30.1637 174.489 30.1457 173.704 30.1457C173.607 30.1457 173.492 30.3578 173.476 30.4411C173.41 30.8494 173.41 31.3052 173.41 32.8571C173.41 34.869 173.476 38.0361 173.492 38.1996C173.524 39.2303 173.965 39.2303 174.668 39.4086C174.897 39.4582 175.06 39.5405 175.06 39.6555C175.06 39.8022 174.864 39.8834 174.619 39.8834C174.57 39.8834 172.348 39.8169 172.136 39.8169C171.857 39.8169 170.126 39.9003 169.849 39.9003C169.554 39.9003 169.44 39.8022 169.44 39.6882C169.44 39.5553 169.718 39.4751 169.799 39.4582C170.927 39.2451 170.927 39.0014 171.041 37.8093C171.123 36.7943 171.204 33.2506 171.204 32.108C171.204 31.1258 171.188 31.0446 171.188 30.4242C171.188 30.3093 171.123 30.1457 171.058 30.1457C170.861 30.1457 169.473 30.1637 169.21 30.1795C168.526 30.2438 168.314 30.5055 167.84 31.3379C167.708 31.5995 167.577 31.7314 167.48 31.7314C167.349 31.7314 167.317 31.5995 167.317 31.436C167.414 30.8009 167.642 30.1457 167.627 29.345C167.627 29.2321 167.773 29.0833 167.84 29.0833C167.887 29.0833 167.903 29.1002 168.002 29.1498C168.165 29.2637 168.314 29.46 168.869 29.4937C169.13 29.5085 169.751 29.5423 170.927 29.5423L175.861 29.5243ZM162.284 34.8837C162.023 34.084 161.484 32.5807 161.239 31.9434C161.173 31.7799 161.075 31.7799 161.043 31.877C160.929 32.1872 160.209 34.1157 160.062 34.9006C160.046 34.9819 160.062 35.08 160.144 35.0968C160.618 35.0968 162.088 35.1127 162.252 35.0968C162.284 35.08 162.334 34.9987 162.284 34.8837ZM162.579 29.5423C162.611 29.7047 162.677 29.8524 162.758 30.0961C163.853 33.2506 165.355 36.8123 165.666 37.6616C166.288 39.0499 166.466 39.2293 167.185 39.4582C167.446 39.4909 167.577 39.6228 167.577 39.6872C167.577 39.7684 167.496 39.9161 167.169 39.9161C166.745 39.9161 164.899 39.818 164.539 39.818C164.032 39.818 163.476 39.8844 163.02 39.8844C162.725 39.8844 162.594 39.7684 162.594 39.703C162.594 39.5732 162.708 39.5078 162.921 39.4424C163.624 39.2135 163.64 39.0499 163.64 38.7556C163.64 38.5435 162.921 36.6646 162.775 36.1909C162.708 36.0769 162.627 35.8807 162.496 35.8807C162.121 35.848 160.765 35.848 159.85 35.8807C159.818 35.8807 159.687 36.0274 159.638 36.1751C159.377 36.8608 158.952 38.3146 158.952 38.6417C158.952 39.0172 159.165 39.262 159.866 39.4909C160.209 39.589 160.259 39.6386 160.259 39.7357C160.274 39.818 160.144 39.8992 159.916 39.8992C159.262 39.8992 158.853 39.818 158.233 39.818C157.693 39.818 157.236 39.8992 156.812 39.8992C156.632 39.8992 156.452 39.8665 156.435 39.7199C156.435 39.6059 156.566 39.5563 156.779 39.5078C157.644 39.2789 157.873 38.936 158.347 37.8894C158.805 36.8766 160.586 31.7472 161.075 30.2597C161.124 30.1299 161.173 29.8841 161.173 29.786C161.173 29.7047 161.189 29.7364 161.189 29.6224C161.189 29.5243 161.32 29.4114 161.386 29.3956C161.516 29.346 162.284 29.3292 162.431 29.3787C162.48 29.3956 162.562 29.4758 162.579 29.5423ZM151.6 31.1912C151.535 30.3272 151.535 30.1141 150.783 29.9168C150.457 29.8356 150.375 29.7206 150.375 29.6404C150.375 29.5739 150.506 29.4758 150.75 29.4758C151.142 29.4758 152.221 29.5423 152.778 29.5423C153.609 29.5423 154.132 29.4758 154.689 29.4758C154.851 29.4758 155.112 29.5254 155.112 29.6562C155.112 29.787 154.966 29.8535 154.721 29.9168C154.166 30.0476 153.986 30.1299 153.936 30.9792C153.871 31.6491 153.855 32.5311 153.855 33.6758C153.855 36.3048 153.887 37.5139 153.92 37.9221C154.001 39.0014 154.085 39.2145 154.933 39.4266C155.112 39.4762 155.26 39.5405 155.26 39.6882C155.26 39.8169 155.081 39.8834 154.851 39.8834C154.23 39.8834 153.087 39.8169 152.792 39.8169C152.319 39.8169 151.306 39.8834 150.669 39.8834C150.489 39.8834 150.277 39.8349 150.277 39.6545C150.277 39.5732 150.44 39.4762 150.653 39.4266C151.535 39.1649 151.583 39.0668 151.616 38.0044C151.633 37.3503 151.633 35.3733 151.633 34.2623C151.633 33.1029 151.649 31.7314 151.6 31.1912ZM146.422 29.4758C146.765 29.5423 147.207 29.6404 147.614 29.6404C147.664 29.6562 147.778 29.8187 147.812 29.8841C147.828 30.1626 147.974 31.6333 147.974 31.6491C148.007 32.2051 147.86 32.2705 147.745 32.2705C147.631 32.2705 147.566 32.108 147.484 31.8285C147.37 31.3231 147.125 30.9296 146.619 30.5055C145.964 29.998 145.001 29.6889 144.25 29.6889C141.963 29.6889 140.819 31.5352 140.819 34.0999C140.819 35.195 141.064 36.404 141.456 37.172C142.338 38.9687 143.726 39.589 144.919 39.589C145.54 39.589 145.997 39.4255 146.374 39.1649C146.929 38.8052 147.288 38.1996 147.533 37.7597C147.566 37.7259 147.745 37.2206 147.926 37.2206C148.088 37.2206 148.122 37.5634 148.088 37.6943C148.057 37.8578 147.909 38.8379 147.876 39.2135C147.876 39.3285 147.566 39.5891 147.321 39.6703C147.256 39.704 145.997 40.1123 144.445 40.1123C142.157 40.1123 140.525 39.3612 139.592 38.3157C138.988 37.6278 138.237 36.5506 138.237 34.6063C138.237 32.4182 139.397 31.1765 139.871 30.7661C141.211 29.557 142.926 29.2469 144.331 29.2469C145.099 29.2469 145.883 29.3787 146.422 29.4758ZM127.864 30.4559C127.308 30.9971 126.703 32.0732 126.703 34.3773C126.703 35.7014 127.161 37.1541 127.928 38.169C128.599 39.0331 129.481 39.5901 130.444 39.5901C131.017 39.5901 131.588 39.2631 131.866 38.9845C132.585 38.2977 133.01 36.7943 133.01 35.0146C133.01 33.9036 132.503 29.7374 129.464 29.7374C128.795 29.7374 128.093 30.228 127.864 30.4559ZM135.525 34.6559C135.525 36.4188 134.726 37.8399 133.647 38.8062C132.814 39.5247 131.555 40.1134 129.955 40.1134C126.818 40.1134 124.251 37.8894 124.251 34.6073C124.251 32.6292 124.972 31.5341 126.066 30.554C126.753 29.9822 128.141 29.2469 129.84 29.2469C134.006 29.2469 135.525 32.4826 135.525 34.6559ZM121.084 29.3787C121.198 29.4104 121.312 29.5908 121.312 29.6889C121.329 29.9822 121.493 31.2577 121.493 31.5014C121.493 31.6153 121.443 31.781 121.362 31.781C121.231 31.781 121.1 31.6006 121.035 31.4033C120.594 30.0961 119.679 29.671 118.682 29.671C118.127 29.671 117.244 30.2597 117.244 31.1596C117.244 32.0743 117.767 32.7284 119.417 33.7897C121.819 35.3574 121.851 36.6002 121.851 37.2037C121.851 37.9717 121.41 38.9687 120.398 39.5732C119.891 39.8834 118.895 40.1123 118.11 40.1123C117.097 40.1123 116.216 39.9161 115.447 39.6059C115.382 39.589 115.268 39.3116 115.268 39.262C115.186 38.6575 114.99 37.9074 114.99 37.3662C114.99 37.1541 115.039 37.0085 115.186 37.0085C115.317 37.0085 115.48 37.2691 116.052 38.4296C116.379 39.0826 117.049 39.6217 118.143 39.6217C119.058 39.6217 119.744 38.6912 119.744 37.9886C119.744 37.4653 119.434 36.6308 117.996 35.6687C116.101 34.41 115.415 33.4943 115.415 32.2705C115.415 31.2081 115.806 30.5698 116.395 30.0645C116.869 29.6077 117.8 29.2479 119.042 29.2479C119.81 29.2479 120.74 29.3787 121.084 29.3787ZM111.968 29.3787C112.082 29.4104 112.196 29.5908 112.196 29.6889C112.213 29.9822 112.376 31.2577 112.376 31.5014C112.376 31.6153 112.327 31.781 112.246 31.781C112.115 31.781 111.984 31.6006 111.918 31.4033C111.479 30.0961 110.563 29.671 109.567 29.671C109.01 29.671 108.129 30.2597 108.129 31.1596C108.129 32.0743 108.652 32.7284 110.301 33.7897C112.703 35.3574 112.736 36.6002 112.736 37.2037C112.736 37.9717 112.295 38.9687 111.281 39.5732C110.776 39.8834 109.779 40.1123 108.995 40.1123C107.981 40.1123 107.098 39.9161 106.331 39.6059C106.265 39.589 106.152 39.3116 106.152 39.262C106.071 38.6575 105.873 37.9074 105.873 37.3662C105.873 37.1541 105.922 37.0085 106.071 37.0085C106.2 37.0085 106.364 37.2691 106.936 38.4296C107.263 39.0826 107.933 39.6217 109.027 39.6217C109.942 39.6217 110.628 38.6912 110.628 37.9886C110.628 37.4653 110.318 36.6308 108.879 35.6687C106.985 34.41 106.3 33.4943 106.3 32.2705C106.3 31.2081 106.691 30.5698 107.28 30.0645C107.753 29.6077 108.684 29.2479 109.926 29.2479C110.694 29.2479 111.625 29.3787 111.968 29.3787ZM98.8818 34.8837C98.6202 34.084 98.0811 32.5807 97.8363 31.9434C97.7709 31.7799 97.6728 31.7799 97.6401 31.877C97.5262 32.1872 96.8077 34.1157 96.66 34.9006C96.6431 34.9819 96.66 35.08 96.7412 35.0968C97.2149 35.0968 98.6856 35.1127 98.8491 35.0968C98.8818 35.08 98.9314 34.9987 98.8818 34.8837ZM99.1762 29.5423C99.2089 29.7047 99.2743 29.8524 99.3555 30.0961C100.451 33.2506 101.953 36.8123 102.264 37.6616C102.886 39.0499 103.064 39.2293 103.783 39.4582C104.044 39.4909 104.175 39.6228 104.175 39.6872C104.175 39.7684 104.094 39.9161 103.766 39.9161C103.341 39.9161 101.496 39.818 101.136 39.818C100.63 39.818 100.074 39.8844 99.6172 39.8844C99.3228 39.8844 99.192 39.7684 99.192 39.703C99.192 39.5732 99.307 39.5078 99.5191 39.4424C100.222 39.2135 100.238 39.0499 100.238 38.7556C100.238 38.5435 99.5191 36.6646 99.3724 36.1909C99.307 36.0769 99.2247 35.8807 99.0939 35.8807C98.7183 35.848 97.3626 35.848 96.4479 35.8807C96.4152 35.8807 96.2844 36.0274 96.2359 36.1751C95.9742 36.8608 95.5491 38.3146 95.5491 38.6417C95.5491 39.0172 95.7622 39.262 96.4638 39.4909C96.8077 39.589 96.8562 39.6386 96.8562 39.7357C96.872 39.818 96.7412 39.8992 96.5134 39.8992C95.8592 39.8992 95.451 39.818 94.8306 39.818C94.2915 39.818 93.8337 39.8992 93.4095 39.8992C93.2291 39.8992 93.0498 39.8665 93.0329 39.7199C93.0329 39.6059 93.1637 39.5563 93.3768 39.5078C94.2419 39.2789 94.4709 38.936 94.9446 37.8894C95.4024 36.8766 97.1833 31.7472 97.6728 30.2597C97.7224 30.1299 97.7709 29.8841 97.7709 29.786C97.7709 29.7047 97.7878 29.7364 97.7878 29.6224C97.7878 29.5243 97.9176 29.4114 97.984 29.3956C98.1138 29.346 98.8818 29.3292 99.0295 29.3787C99.0781 29.3956 99.1593 29.4758 99.1762 29.5423ZM82.8722 29.902C82.7572 29.902 82.562 29.9179 82.4312 30.016C82.3331 30.0961 82.3162 30.3261 82.2677 30.7017C82.2191 31.2894 82.2023 33.43 82.235 34.2296C82.235 34.3942 82.3816 34.4269 82.4143 34.4417C82.4966 34.4596 82.8068 34.4596 82.9207 34.4596C83.1665 34.4596 83.7215 34.4111 83.9673 34.313C84.3429 34.1168 84.9147 33.6758 84.9147 32.3686C84.9147 31.5668 84.4241 29.902 82.8722 29.902ZM85.3715 34.4765C85.3715 34.4913 85.323 34.5082 85.3557 34.5894C85.7471 35.4397 87.0869 38.0371 87.9035 38.8854C88.3772 39.377 88.8192 39.4255 89.1452 39.5078C89.1938 39.5236 89.39 39.6059 89.39 39.704C89.39 39.8022 89.2929 39.8665 89.1621 39.8992C88.9659 39.9646 88.4595 39.9488 88.182 39.9488C87.3158 39.9488 86.1395 40.0638 85.2734 38.7725C84.8651 38.15 84.1952 36.8777 83.5748 35.7182C83.2309 35.0969 82.9207 34.8848 82.4143 34.8848C82.3985 34.8848 82.3331 34.9006 82.3004 34.9164C82.2677 34.9333 82.235 34.965 82.235 35.0135C82.235 35.5051 82.2677 37.6616 82.3331 38.2661C82.4143 39.0183 82.5124 39.1955 83.3132 39.4424C83.5579 39.5078 83.6402 39.6386 83.6402 39.6872C83.6402 39.818 83.444 39.8665 83.1992 39.8665C83.0515 39.8665 81.5977 39.818 80.9436 39.818C80.1925 39.818 79.4244 39.8834 79.2778 39.8834C78.8526 39.8834 78.7883 39.7695 78.7883 39.6703C78.7883 39.6218 78.9022 39.5078 79.0984 39.4572C79.9646 39.2303 80.0944 39.0014 80.1112 38.2661C80.1271 37.1879 80.144 36.1255 80.144 33.5439C80.144 31.0615 80.1271 30.9781 80.0785 30.6859C80.0131 30.0814 79.6703 30.0328 79.147 29.902C78.9676 29.8524 78.7883 29.8197 78.7883 29.7058C78.7883 29.5919 79.0162 29.4937 79.1966 29.4937C79.262 29.4937 80.4383 29.5243 80.471 29.5243C81.1072 29.5243 82.447 29.4283 83.329 29.4283C84.5222 29.4283 85.4854 29.5919 86.2208 30.1457C86.6459 30.4559 87.1196 31.1596 87.1196 32.0416C87.1196 33.3308 86.4339 34.084 85.3715 34.4765ZM72.1555 34.8837C71.8938 34.084 71.3547 32.5807 71.11 31.9434C71.0446 31.7799 70.9464 31.7799 70.9137 31.877C70.7988 32.1872 70.0803 34.1157 69.9337 34.9006C69.9168 34.9819 69.9337 35.08 70.0149 35.0968C70.4886 35.0968 71.9593 35.1127 72.1228 35.0968C72.1555 35.08 72.204 34.9987 72.1555 34.8837ZM72.4488 29.5423C72.4825 29.7047 72.5479 29.8524 72.6292 30.0961C73.7243 33.2506 75.2266 36.8123 75.5368 37.6616C76.1592 39.0499 76.3375 39.2293 77.056 39.4582C77.3176 39.4909 77.4484 39.6228 77.4484 39.6872C77.4484 39.7684 77.3672 39.9161 77.0401 39.9161C76.615 39.9161 74.7698 39.818 74.41 39.818C73.9036 39.818 73.3476 39.8844 72.8908 39.8844C72.5965 39.8844 72.4657 39.7684 72.4657 39.703C72.4657 39.5732 72.5796 39.5078 72.7927 39.4424C73.4953 39.2135 73.5112 39.0499 73.5112 38.7556C73.5112 38.5435 72.7927 36.6646 72.6461 36.1909C72.5796 36.0769 72.4984 35.8807 72.3675 35.8807C71.992 35.848 70.6363 35.848 69.7216 35.8807C69.6878 35.8807 69.5581 36.0274 69.5085 36.1751C69.2468 36.8608 68.8227 38.3146 68.8227 38.6417C68.8227 39.0172 69.0348 39.262 69.7374 39.4909C70.0803 39.589 70.1299 39.6386 70.1299 39.7357C70.1457 39.818 70.0149 39.8992 69.787 39.8992C69.1329 39.8992 68.7246 39.818 68.1032 39.818C67.5652 39.818 67.1073 39.8992 66.6821 39.8992C66.5028 39.8992 66.3234 39.8665 66.3066 39.7199C66.3066 39.6059 66.4374 39.5563 66.6494 39.5078C67.5156 39.2789 67.7445 38.936 68.2182 37.8894C68.675 36.8766 70.4559 31.7472 70.9464 30.2597C70.995 30.1299 71.0446 29.8841 71.0446 29.786C71.0446 29.7047 71.0604 29.7364 71.0604 29.6224C71.0604 29.5243 71.1912 29.4114 71.2566 29.3956C71.3874 29.346 72.1555 29.3292 72.3021 29.3787C72.3517 29.3956 72.4329 29.4758 72.4488 29.5423ZM60.0831 34.41C59.9038 34.41 59.7075 34.4269 59.5925 34.4765C59.5609 34.4913 59.4955 34.6717 59.4955 34.8521C59.4786 35.3912 59.5271 37.7766 59.5767 38.168C59.6094 38.4623 59.6252 38.7556 59.8383 38.9845C60.1485 39.2789 60.6391 39.4582 60.8184 39.4582C61.6192 39.4582 62.5666 38.3811 62.5666 37.0739C62.5666 35.5051 61.4388 34.41 60.0831 34.41ZM60.1 29.8345C59.9692 29.8345 59.8056 29.8693 59.6906 29.9326C59.5767 29.998 59.544 30.0961 59.5271 30.2597C59.5113 30.6859 59.4628 33.4458 59.4955 33.8551C59.4955 33.8878 59.5925 33.9859 59.9196 33.9859C60.5241 33.9859 61.0959 33.7739 61.3407 33.5766C61.8639 33.2021 62.0602 32.4667 62.0602 32.0089C62.0602 30.5551 61.079 29.8345 60.1 29.8345ZM63.841 39.0341C63.073 39.6545 61.6192 39.8834 60.5726 39.8834C60.0831 39.8834 58.7928 39.8665 58.0575 39.8349C57.453 39.818 56.5541 39.8834 56.3094 39.8834C56.0804 39.8834 55.8515 39.8349 55.8515 39.6872C55.8515 39.6059 55.9823 39.5078 56.1785 39.4751C57.2082 39.2789 57.1586 38.9687 57.224 38.4296C57.2736 38.1194 57.3222 35.6191 57.3222 33.8551C57.3222 31.8949 57.2736 31.1596 57.2399 30.8315C57.1913 30.1299 56.9466 29.9833 56.1617 29.8841C55.9665 29.8693 55.7703 29.8039 55.7703 29.6562C55.7703 29.5423 56.0646 29.4927 56.1785 29.4927H57.4857C58.2864 29.4927 59.7888 29.3787 60.3933 29.3787C61.4884 29.3787 62.2722 29.5096 62.9917 29.8524C63.7429 30.1953 64.2324 31.0288 64.2324 31.8126C64.2324 32.9077 63.726 33.4627 62.8113 33.9363C62.6974 33.9859 62.7628 34.0513 62.8609 34.0672C64.4287 34.6559 64.9678 35.636 64.9678 36.845C64.9678 37.6943 64.4614 38.495 63.841 39.0341ZM204.217 15.1426C204.574 15.1426 205.431 15.1826 205.774 15.1826C206.262 15.1826 207.252 15.1426 207.542 15.1426C207.66 15.1426 207.857 15.1953 207.857 15.3145C207.857 15.3947 207.792 15.4601 207.528 15.5002C206.856 15.6057 206.842 15.8547 206.789 16.5679C206.763 16.9899 206.737 17.3865 206.737 19.141C206.737 20.6307 206.777 21.9114 206.816 22.3862C206.83 22.6099 207.053 22.9401 207.291 22.9664C207.699 22.9928 208.215 23.0319 208.795 22.9928C209.362 22.9527 209.746 22.5972 210.168 21.8059C210.351 21.4894 210.444 21.3702 210.523 21.3702C210.549 21.3702 210.655 21.4504 210.655 21.6087C210.655 21.9505 210.418 22.8873 210.273 23.2576C210.258 23.2967 210.126 23.534 209.957 23.534C209.071 23.534 207.819 23.4813 206.143 23.4813C204.798 23.4813 204.363 23.5604 203.953 23.5604C203.729 23.5604 203.636 23.5214 203.636 23.4022C203.636 23.3367 203.729 23.2703 203.926 23.2312C204.666 23.0857 204.85 22.9264 204.903 22.2807C204.93 22.0169 204.956 20.9472 204.956 18.8245C204.956 17.1882 204.956 16.8443 204.943 16.4096C204.93 15.8167 204.798 15.592 204.205 15.4865C203.965 15.4474 203.888 15.3546 203.888 15.2881C203.888 15.2217 204.019 15.1426 204.217 15.1426ZM198.502 19.4976C198.291 18.8498 197.857 17.6376 197.657 17.1217C197.605 16.9899 197.527 16.9899 197.499 17.069C197.407 17.3201 196.827 18.8773 196.708 19.5113C196.695 19.5746 196.708 19.6558 196.774 19.6696C197.157 19.6696 198.344 19.6812 198.476 19.6696C198.502 19.6558 198.543 19.5883 198.502 19.4976ZM198.74 15.1826C198.766 15.3145 198.819 15.4337 198.885 15.6321C199.77 18.1778 200.983 21.0527 201.233 21.7395C201.735 22.8609 201.88 23.0055 202.46 23.1912C202.671 23.2175 202.776 23.323 202.776 23.3747C202.776 23.4422 202.711 23.5604 202.447 23.5604C202.104 23.5604 200.614 23.4813 200.323 23.4813C199.915 23.4813 199.466 23.534 199.096 23.534C198.859 23.534 198.754 23.4422 198.754 23.3895C198.754 23.284 198.845 23.2313 199.017 23.1774C199.584 22.9928 199.599 22.8609 199.599 22.6236C199.599 22.4527 199.017 20.9356 198.898 20.5526C198.845 20.4608 198.78 20.3026 198.674 20.3026C198.372 20.2751 197.275 20.2751 196.537 20.3026C196.511 20.3026 196.405 20.4197 196.366 20.5389C196.155 21.0938 195.81 22.267 195.81 22.5307C195.81 22.8346 195.983 23.0319 196.55 23.2175C196.827 23.2967 196.866 23.3367 196.866 23.4159C196.88 23.4813 196.774 23.5477 196.59 23.5477C196.062 23.5477 195.732 23.4813 195.23 23.4813C194.795 23.4813 194.426 23.5477 194.082 23.5477C193.939 23.5477 193.793 23.5214 193.779 23.4022C193.779 23.3104 193.886 23.2703 194.056 23.2312C194.756 23.0456 194.941 22.7692 195.323 21.9252C195.693 21.1054 197.13 16.9635 197.527 15.7629C197.566 15.6585 197.605 15.4601 197.605 15.381C197.605 15.3145 197.619 15.3409 197.619 15.2481C197.619 15.17 197.725 15.0771 197.778 15.0645C197.882 15.0244 198.502 15.0117 198.622 15.0508C198.661 15.0645 198.727 15.1299 198.74 15.1826ZM184.147 15.1172C184.451 15.1172 185.744 15.1837 186.456 15.1837C186.483 15.1837 186.588 15.2227 186.681 15.3145C186.905 15.5646 187.261 15.8705 187.828 16.5425C188.488 17.3338 190.48 19.4965 191.338 20.4735C191.443 20.5916 191.456 20.4735 191.47 20.3944C191.509 19.8922 191.509 17.9795 191.523 17.281C191.523 16.8981 191.482 16.5816 191.443 16.2398C191.403 15.8811 191.232 15.6447 190.547 15.5002C190.244 15.4474 190.204 15.381 190.204 15.2755C190.204 15.17 190.375 15.1309 190.494 15.1309C190.876 15.1309 191.259 15.1837 191.708 15.1837C192.157 15.1837 192.551 15.1309 192.92 15.1309C193.131 15.1309 193.224 15.1837 193.224 15.2892C193.224 15.3536 193.092 15.4474 192.934 15.4865C192.209 15.6701 192.157 15.8948 192.077 16.3843C192.036 16.648 191.957 18.4426 191.972 21.0938C191.972 21.4757 191.998 22.0296 191.998 23.2576C191.998 23.3357 191.878 23.744 191.814 23.744C191.641 23.744 191.443 23.5994 191.324 23.4549C191.087 23.1637 190.56 22.4917 190.297 22.1604C189.095 20.6718 186.497 17.663 185.771 16.9899C185.744 16.9371 185.665 16.9371 185.651 17.0827C185.625 17.4646 185.639 17.9541 185.625 18.9828C185.586 21.4356 185.651 21.845 185.678 22.2132C185.731 22.8884 186.218 22.9664 186.773 23.1774C186.945 23.2439 187.024 23.2829 187.024 23.3357C187.024 23.4412 186.878 23.533 186.708 23.533C186.298 23.533 185.665 23.4802 185.19 23.4802C184.939 23.4802 184.465 23.533 184.122 23.533C184.017 23.533 183.818 23.4939 183.818 23.3747C183.818 23.2302 184.03 23.1912 184.094 23.1774C184.742 22.9802 184.979 22.9274 185.032 21.9389C185.059 21.6076 185.19 19.1273 185.19 16.6618C185.19 16.0003 185.071 15.7502 184.61 15.6057C184.465 15.5529 184.32 15.5118 184.069 15.4591C183.976 15.4474 183.831 15.3947 183.831 15.2755C183.831 15.209 183.911 15.1172 184.147 15.1172ZM176.164 15.9222C175.715 16.3569 175.227 17.2283 175.227 19.0893C175.227 20.1559 175.596 21.3312 176.217 22.1488C176.757 22.8472 177.47 23.2967 178.247 23.2967C178.71 23.2967 179.173 23.0329 179.396 22.8071C179.977 22.2543 180.319 21.04 180.319 19.6031C180.319 18.7063 179.91 15.3419 177.456 15.3419C176.916 15.3419 176.347 15.7376 176.164 15.9222ZM182.35 19.3119C182.35 20.7372 181.705 21.8851 180.834 22.6626C180.161 23.2439 179.145 23.7187 177.853 23.7187C175.32 23.7187 173.249 21.9241 173.249 19.2729C173.249 17.6767 173.829 16.7915 174.712 16.0003C175.267 15.5392 176.388 14.9453 177.76 14.9453C181.124 14.9453 182.35 17.5585 182.35 19.3119ZM168.709 16.5151C168.656 15.8156 168.656 15.6458 168.05 15.4865C167.786 15.42 167.72 15.3282 167.72 15.2618C167.72 15.209 167.824 15.1299 168.023 15.1299C168.34 15.1299 169.21 15.1826 169.66 15.1826C170.333 15.1826 170.754 15.1299 171.203 15.1299C171.334 15.1299 171.546 15.17 171.546 15.2755C171.546 15.381 171.428 15.4337 171.23 15.4865C170.78 15.592 170.636 15.6584 170.596 16.3442C170.543 16.8844 170.53 17.5965 170.53 18.5207C170.53 20.6444 170.557 21.6213 170.583 21.9494C170.648 22.823 170.715 22.9928 171.402 23.1637C171.546 23.2038 171.665 23.2566 171.665 23.3747C171.665 23.4813 171.52 23.533 171.334 23.533C170.833 23.533 169.911 23.4813 169.672 23.4813C169.291 23.4813 168.472 23.533 167.958 23.533C167.812 23.533 167.64 23.495 167.64 23.3494C167.64 23.2829 167.771 23.2038 167.944 23.1637C168.656 22.9527 168.698 22.8757 168.722 22.0169C168.736 21.4894 168.736 19.8922 168.736 18.9954C168.736 18.0596 168.75 16.9508 168.709 16.5151ZM164.842 15.17C165.29 15.17 165.66 15.1172 165.845 15.0117C165.911 14.9727 165.99 14.8915 166.07 14.8915C166.109 14.8915 166.201 15.0254 166.175 15.1563C166.07 15.5529 165.95 16.3178 165.95 16.6618C165.938 16.9244 165.806 17.0299 165.739 17.0299C165.674 17.0299 165.634 16.9118 165.555 16.6618C165.357 16.0667 165.305 15.7502 164.606 15.7112C164.209 15.6838 163.734 15.6701 163.1 15.6701C163.023 15.6701 162.929 15.842 162.916 15.9085C162.863 16.2398 162.863 16.609 162.863 17.8613C162.863 19.4839 162.916 22.0444 162.929 22.1752C162.955 23.0055 163.311 23.0055 163.879 23.1521C164.064 23.1912 164.196 23.2576 164.196 23.3494C164.196 23.4686 164.038 23.533 163.839 23.533C163.8 23.533 162.006 23.4802 161.834 23.4802C161.609 23.4802 160.211 23.5467 159.988 23.5467C159.75 23.5467 159.658 23.4686 159.658 23.3747C159.658 23.2692 159.882 23.2049 159.947 23.1912C160.858 23.0192 160.858 22.8219 160.95 21.8576C161.016 21.0411 161.082 18.1778 161.082 17.2536C161.082 16.4624 161.069 16.398 161.069 15.8948C161.069 15.803 161.016 15.6701 160.963 15.6701C160.805 15.6701 159.685 15.6838 159.474 15.6975C158.919 15.7502 158.747 15.9612 158.365 16.6343C158.259 16.8443 158.154 16.9508 158.075 16.9508C157.969 16.9508 157.943 16.8443 157.943 16.7145C158.022 16.1976 158.207 15.6701 158.193 15.0254C158.193 14.9326 158.312 14.8144 158.365 14.8144C158.404 14.8144 158.418 14.8271 158.497 14.8672C158.629 14.959 158.747 15.1172 159.195 15.1436C159.407 15.1563 159.908 15.1837 160.858 15.1837L164.842 15.17ZM153.878 19.4976C153.667 18.8498 153.23 17.6376 153.034 17.1217C152.981 16.9899 152.901 16.9899 152.875 17.069C152.782 17.3201 152.203 18.8773 152.083 19.5113C152.071 19.5746 152.083 19.6558 152.15 19.6696C152.532 19.6696 153.72 19.6812 153.852 19.6696C153.878 19.6558 153.917 19.5883 153.878 19.4976ZM154.114 15.1826C154.142 15.3145 154.195 15.4337 154.26 15.6321C155.144 18.1778 156.358 21.0527 156.608 21.7395C157.111 22.8609 157.256 23.0055 157.835 23.1912C158.046 23.2175 158.152 23.323 158.152 23.3747C158.152 23.4422 158.086 23.5604 157.823 23.5604C157.48 23.5604 155.989 23.4813 155.698 23.4813C155.289 23.4813 154.84 23.534 154.471 23.534C154.234 23.534 154.128 23.4422 154.128 23.3895C154.128 23.284 154.22 23.2313 154.392 23.1774C154.958 22.9928 154.972 22.8609 154.972 22.6236C154.972 22.4527 154.392 20.9356 154.273 20.5526C154.22 20.4608 154.154 20.3026 154.049 20.3026C153.746 20.2751 152.65 20.2751 151.913 20.3026C151.886 20.3026 151.781 20.4197 151.741 20.5389C151.529 21.0938 151.186 22.267 151.186 22.5307C151.186 22.8346 151.359 23.0319 151.925 23.2175C152.203 23.2967 152.242 23.3367 152.242 23.4159C152.254 23.4813 152.15 23.5477 151.965 23.5477C151.438 23.5477 151.108 23.4813 150.605 23.4813C150.171 23.4813 149.801 23.5477 149.458 23.5477C149.312 23.5477 149.167 23.5214 149.154 23.4022C149.154 23.3104 149.259 23.2703 149.431 23.2312C150.132 23.0456 150.315 22.7692 150.698 21.9252C151.067 21.1054 152.505 16.9635 152.901 15.7629C152.94 15.6585 152.981 15.4601 152.981 15.381C152.981 15.3145 152.993 15.3409 152.993 15.2481C152.993 15.17 153.098 15.0771 153.151 15.0645C153.258 15.0244 153.878 15.0117 153.996 15.0508C154.036 15.0645 154.102 15.1299 154.114 15.1826ZM139.523 15.1172C139.825 15.1172 141.119 15.1837 141.831 15.1837C141.858 15.1837 141.964 15.2227 142.057 15.3145C142.28 15.5646 142.637 15.8705 143.204 16.5425C143.864 17.3338 145.855 19.4965 146.712 20.4735C146.818 20.5916 146.831 20.4735 146.844 20.3944C146.883 19.8922 146.883 17.9795 146.897 17.281C146.897 16.8981 146.858 16.5816 146.818 16.2398C146.778 15.8811 146.607 15.6447 145.921 15.5002C145.618 15.4474 145.577 15.381 145.577 15.2755C145.577 15.17 145.749 15.1309 145.868 15.1309C146.251 15.1309 146.633 15.1837 147.082 15.1837C147.53 15.1837 147.927 15.1309 148.296 15.1309C148.507 15.1309 148.6 15.1837 148.6 15.2892C148.6 15.3536 148.467 15.4474 148.309 15.4865C147.583 15.6701 147.53 15.8948 147.451 16.3843C147.411 16.648 147.333 18.4426 147.345 21.0938C147.345 21.4757 147.372 22.0296 147.372 23.2576C147.372 23.3357 147.253 23.744 147.187 23.744C147.016 23.744 146.818 23.5994 146.7 23.4549C146.461 23.1637 145.935 22.4917 145.67 22.1604C144.471 20.6718 141.87 17.663 141.145 16.9899C141.119 16.9371 141.04 16.9371 141.026 17.0827C141.001 17.4646 141.013 17.9541 141.001 18.9828C140.961 21.4356 141.026 21.845 141.053 22.2132C141.106 22.8884 141.594 22.9664 142.148 23.1774C142.32 23.2439 142.397 23.2829 142.397 23.3357C142.397 23.4412 142.254 23.533 142.081 23.533C141.673 23.533 141.04 23.4802 140.565 23.4802C140.315 23.4802 139.839 23.533 139.496 23.533C139.391 23.533 139.192 23.4939 139.192 23.3747C139.192 23.2302 139.403 23.1912 139.47 23.1774C140.117 22.9802 140.354 22.9274 140.407 21.9389C140.433 21.6076 140.565 19.1273 140.565 16.6618C140.565 16.0003 140.445 15.7502 139.985 15.6057C139.839 15.5529 139.694 15.5118 139.443 15.4591C139.351 15.4474 139.206 15.3947 139.206 15.2755C139.206 15.209 139.285 15.1172 139.523 15.1172ZM126.261 15.1172C126.565 15.1172 127.859 15.1837 128.57 15.1837C128.596 15.1837 128.701 15.2227 128.795 15.3145C129.018 15.5646 129.376 15.8705 129.942 16.5425C130.602 17.3338 132.594 19.4965 133.452 20.4735C133.558 20.5916 133.57 20.4735 133.584 20.3944C133.623 19.8922 133.623 17.9795 133.637 17.281C133.637 16.8981 133.597 16.5816 133.558 16.2398C133.518 15.8811 133.347 15.6447 132.661 15.5002C132.358 15.4474 132.317 15.381 132.317 15.2755C132.317 15.17 132.488 15.1309 132.608 15.1309C132.99 15.1309 133.373 15.1837 133.821 15.1837C134.27 15.1837 134.665 15.1309 135.035 15.1309C135.246 15.1309 135.338 15.1837 135.338 15.2892C135.338 15.3536 135.207 15.4474 135.048 15.4865C134.322 15.6701 134.27 15.8948 134.192 16.3843C134.151 16.648 134.071 18.4426 134.085 21.0938C134.085 21.4757 134.111 22.0296 134.111 23.2576C134.111 23.3357 133.992 23.744 133.927 23.744C133.755 23.744 133.558 23.5994 133.438 23.4549C133.201 23.1637 132.675 22.4917 132.411 22.1604C131.209 20.6718 128.611 17.663 127.885 16.9899C127.859 16.9371 127.779 16.9371 127.766 17.0827C127.739 17.4646 127.753 17.9541 127.739 18.9828C127.7 21.4356 127.766 21.845 127.792 22.2132C127.845 22.8884 128.332 22.9664 128.887 23.1774C129.059 23.2439 129.138 23.2829 129.138 23.3357C129.138 23.4412 128.992 23.533 128.822 23.533C128.411 23.533 127.779 23.4802 127.305 23.4802C127.054 23.4802 126.578 23.533 126.235 23.533C126.13 23.533 125.932 23.4939 125.932 23.3747C125.932 23.2302 126.143 23.1912 126.208 23.1774C126.856 22.9802 127.094 22.9274 127.146 21.9389C127.173 21.6076 127.305 19.1273 127.305 16.6618C127.305 16.0003 127.185 15.7502 126.724 15.6057C126.578 15.5529 126.433 15.5118 126.183 15.4591C126.09 15.4474 125.945 15.3947 125.945 15.2755C125.945 15.209 126.025 15.1172 126.261 15.1172ZM120.798 19.4976C120.586 18.8498 120.152 17.6376 119.953 17.1217C119.901 16.9899 119.823 16.9899 119.795 17.069C119.703 17.3201 119.122 18.8773 119.003 19.5113C118.99 19.5746 119.003 19.6558 119.069 19.6696C119.453 19.6696 120.639 19.6812 120.771 19.6696C120.798 19.6558 120.837 19.5883 120.798 19.4976ZM121.035 15.1826C121.061 15.3145 121.115 15.4337 121.181 15.6321C122.064 18.1778 123.279 21.0527 123.529 21.7395C124.03 22.8609 124.175 23.0055 124.755 23.1912C124.966 23.2175 125.072 23.323 125.072 23.3747C125.072 23.4422 125.007 23.5604 124.742 23.5604C124.399 23.5604 122.908 23.4813 122.618 23.4813C122.21 23.4813 121.762 23.534 121.392 23.534C121.154 23.534 121.048 23.4422 121.048 23.3895C121.048 23.284 121.141 23.2313 121.313 23.1774C121.88 22.9928 121.894 22.8609 121.894 22.6236C121.894 22.4527 121.313 20.9356 121.194 20.5526C121.141 20.4608 121.075 20.3026 120.97 20.3026C120.668 20.2751 119.57 20.2751 118.832 20.3026C118.806 20.3026 118.7 20.4197 118.661 20.5389C118.45 21.0938 118.106 22.267 118.106 22.5307C118.106 22.8346 118.278 23.0319 118.845 23.2175C119.122 23.2967 119.161 23.3367 119.161 23.4159C119.175 23.4813 119.069 23.5477 118.885 23.5477C118.357 23.5477 118.028 23.4813 117.525 23.4813C117.09 23.4813 116.721 23.5477 116.378 23.5477C116.233 23.5477 116.088 23.5214 116.075 23.4022C116.075 23.3104 116.181 23.2703 116.352 23.2312C117.051 23.0456 117.237 22.7692 117.619 21.9252C117.988 21.1054 119.426 16.9635 119.823 15.7629C119.862 15.6585 119.901 15.4601 119.901 15.381C119.901 15.3145 119.914 15.3409 119.914 15.2481C119.914 15.17 120.02 15.0771 120.073 15.0645C120.178 15.0244 120.798 15.0117 120.917 15.0508C120.956 15.0645 121.022 15.1299 121.035 15.1826ZM112.169 16.5151C112.117 15.8156 112.117 15.6458 111.509 15.4865C111.245 15.42 111.18 15.3282 111.18 15.2618C111.18 15.209 111.285 15.1299 111.483 15.1299C111.799 15.1299 112.671 15.1826 113.119 15.1826C113.791 15.1826 114.214 15.1299 114.663 15.1299C114.794 15.1299 115.005 15.17 115.005 15.2755C115.005 15.381 114.887 15.4337 114.689 15.4865C114.241 15.592 114.095 15.6584 114.055 16.3442C114.002 16.8844 113.991 17.5965 113.991 18.5207C113.991 20.6444 114.017 21.6213 114.043 21.9494C114.109 22.823 114.175 22.9928 114.861 23.1637C115.005 23.2038 115.125 23.2566 115.125 23.3747C115.125 23.4813 114.979 23.533 114.794 23.533C114.293 23.533 113.369 23.4813 113.133 23.4813C112.75 23.4813 111.931 23.533 111.416 23.533C111.272 23.533 111.1 23.495 111.1 23.3494C111.1 23.2829 111.233 23.2038 111.404 23.1637C112.117 22.9527 112.155 22.8757 112.183 22.0169C112.195 21.4894 112.195 19.8922 112.195 18.9954C112.195 18.0596 112.209 16.9508 112.169 16.5151ZM100.875 15.1172C101.178 15.1172 102.471 15.1837 103.184 15.1837C103.211 15.1837 103.316 15.2227 103.409 15.3145C103.633 15.5646 103.989 15.8705 104.556 16.5425C105.216 17.3338 107.207 19.4965 108.065 20.4735C108.17 20.5916 108.183 20.4735 108.196 20.3944C108.235 19.8922 108.235 17.9795 108.249 17.281C108.249 16.8981 108.21 16.5816 108.17 16.2398C108.13 15.8811 107.959 15.6447 107.273 15.5002C106.969 15.4474 106.929 15.381 106.929 15.2755C106.929 15.17 107.101 15.1309 107.221 15.1309C107.604 15.1309 107.985 15.1837 108.434 15.1837C108.882 15.1837 109.279 15.1309 109.648 15.1309C109.859 15.1309 109.952 15.1837 109.952 15.2892C109.952 15.3536 109.819 15.4474 109.661 15.4865C108.935 15.6701 108.882 15.8948 108.803 16.3843C108.763 16.648 108.685 18.4426 108.698 21.0938C108.698 21.4757 108.724 22.0296 108.724 23.2576C108.724 23.3357 108.605 23.744 108.539 23.744C108.368 23.744 108.17 23.5994 108.052 23.4549C107.813 23.1637 107.287 22.4917 107.022 22.1604C105.823 20.6718 103.222 17.663 102.497 16.9899C102.471 16.9371 102.392 16.9371 102.378 17.0827C102.353 17.4646 102.365 17.9541 102.353 18.9828C102.313 21.4356 102.378 21.845 102.406 22.2132C102.458 22.8884 102.946 22.9664 103.501 23.1774C103.673 23.2439 103.751 23.2829 103.751 23.3357C103.751 23.4412 103.606 23.533 103.433 23.533C103.025 23.533 102.392 23.4802 101.917 23.4802C101.666 23.4802 101.191 23.533 100.848 23.533C100.743 23.533 100.545 23.4939 100.545 23.3747C100.545 23.2302 100.756 23.1912 100.822 23.1774C101.468 22.9802 101.706 22.9274 101.758 21.9389C101.784 21.6076 101.917 19.1273 101.917 16.6618C101.917 16.0003 101.797 15.7502 101.337 15.6057C101.191 15.5529 101.046 15.5118 100.796 15.4591C100.703 15.4474 100.558 15.3947 100.558 15.2755C100.558 15.209 100.637 15.1172 100.875 15.1172ZM96.4279 16.5151C96.3752 15.8156 96.3752 15.6458 95.7685 15.4865C95.5048 15.42 95.4372 15.3282 95.4372 15.2618C95.4372 15.209 95.5438 15.1299 95.7421 15.1299C96.0586 15.1299 96.929 15.1826 97.3785 15.1826C98.0515 15.1826 98.4725 15.1299 98.9209 15.1299C99.0527 15.1299 99.2648 15.17 99.2648 15.2755C99.2648 15.381 99.1466 15.4337 98.9472 15.4865C98.4989 15.592 98.3543 15.6584 98.3142 16.3442C98.2615 16.8844 98.2488 17.5965 98.2488 18.5207C98.2488 20.6444 98.2752 21.6213 98.3016 21.9494C98.367 22.823 98.4335 22.9928 99.1203 23.1637C99.2648 23.2038 99.384 23.2566 99.384 23.3747C99.384 23.4813 99.2384 23.533 99.0527 23.533C98.5516 23.533 97.6295 23.4813 97.3911 23.4813C97.0081 23.4813 96.1905 23.533 95.6767 23.533C95.5312 23.533 95.3602 23.495 95.3602 23.3494C95.3602 23.2829 95.49 23.2038 95.663 23.1637C96.3752 22.9527 96.4152 22.8757 96.4406 22.0169C96.4543 21.4894 96.4543 19.8922 96.4543 18.9954C96.4543 18.0596 96.468 16.9508 96.4279 16.5151ZM90.0019 19.4976C89.7909 18.8498 89.3541 17.6376 89.1568 17.1217C89.1041 16.9899 89.0249 16.9899 88.9986 17.069C88.9057 17.3201 88.3265 18.8773 88.2073 19.5113C88.1947 19.5746 88.2073 19.6558 88.2738 19.6696C88.6557 19.6696 89.8436 19.6812 89.9755 19.6696C90.0019 19.6558 90.0409 19.5883 90.0019 19.4976ZM90.2382 15.1826C90.2656 15.3145 90.3184 15.4337 90.3838 15.6321C91.2689 18.1778 92.4822 21.0527 92.7322 21.7395C93.2334 22.8609 93.38 23.0055 93.9592 23.1912C94.1702 23.2175 94.2757 23.323 94.2757 23.3747C94.2757 23.4422 94.2103 23.5604 93.9465 23.5604C93.6037 23.5604 92.1129 23.4813 91.8218 23.4813C91.4124 23.4813 90.964 23.534 90.5948 23.534C90.3574 23.534 90.2519 23.4422 90.2519 23.3895C90.2519 23.284 90.3437 23.2313 90.5157 23.1774C91.0822 22.9928 91.0959 22.8609 91.0959 22.6236C91.0959 22.4527 90.5157 20.9356 90.3965 20.5526C90.3437 20.4608 90.2783 20.3026 90.1728 20.3026C89.87 20.2751 88.7739 20.2751 88.0364 20.3026C88.01 20.3026 87.9045 20.4197 87.8644 20.5389C87.6524 21.0938 87.3095 22.267 87.3095 22.5307C87.3095 22.8346 87.4815 23.0319 88.0491 23.2175C88.3265 23.2967 88.3656 23.3367 88.3656 23.4159C88.3782 23.4813 88.2738 23.5477 88.0892 23.5477C87.5617 23.5477 87.2304 23.4813 86.7293 23.4813C86.2946 23.4813 85.9254 23.5477 85.5814 23.5477C85.4358 23.5477 85.2913 23.5214 85.2776 23.4022C85.2776 23.3104 85.3831 23.2703 85.5561 23.2312C86.2556 23.0456 86.4391 22.7692 86.8221 21.9252C87.1914 21.1054 88.6293 16.9635 89.0249 15.7629C89.064 15.6585 89.1041 15.4601 89.1041 15.381C89.1041 15.3145 89.1167 15.3409 89.1167 15.2481C89.1167 15.17 89.2222 15.0771 89.275 15.0645C89.3805 15.0244 90.0019 15.0117 90.12 15.0508C90.1601 15.0645 90.2255 15.1299 90.2382 15.1826ZM79.7219 15.4728C79.6302 15.4728 79.4719 15.4865 79.3664 15.5646C79.2873 15.631 79.2757 15.8156 79.2345 16.1205C79.1945 16.5953 79.1818 18.3234 79.2092 18.969C79.2092 19.1009 79.3274 19.1273 79.3527 19.141C79.4192 19.1537 79.6692 19.1537 79.762 19.1537C79.9604 19.1537 80.4088 19.1136 80.6071 19.0355C80.9099 18.8773 81.3709 18.5207 81.3709 17.4646C81.3709 16.8189 80.9763 15.4728 79.7219 15.4728ZM81.7412 19.1663C81.7412 19.18 81.7022 19.1938 81.7286 19.2592C82.0451 19.9449 83.1264 22.0444 83.7858 22.7291C84.1688 23.1247 84.5243 23.1637 84.7881 23.2302C84.8282 23.245 84.9864 23.3093 84.9864 23.3884C84.9864 23.4686 84.9073 23.5214 84.8018 23.5467C84.6435 23.6005 84.2353 23.5857 84.0105 23.5857C83.31 23.5857 82.3616 23.6786 81.6621 22.6362C81.3329 22.1362 80.7917 21.1054 80.2906 20.1696C80.0121 19.6696 79.762 19.4965 79.3527 19.4965C79.34 19.4965 79.2873 19.5113 79.2609 19.5229C79.2345 19.5356 79.2092 19.5641 79.2092 19.602C79.2092 19.9977 79.2345 21.7384 79.2873 22.2279C79.3527 22.8346 79.4339 22.9802 80.0796 23.1774C80.2769 23.2302 80.3433 23.3357 80.3433 23.3747C80.3433 23.4813 80.1851 23.5214 79.9868 23.5214C79.8686 23.5214 78.6944 23.4813 78.1669 23.4813C77.5581 23.4813 76.9389 23.533 76.8196 23.533C76.4778 23.533 76.4251 23.4412 76.4251 23.3621C76.4251 23.322 76.5169 23.2302 76.6751 23.1912C77.3746 23.0055 77.4801 22.8219 77.4927 22.2279C77.5054 21.3576 77.5191 20.4998 77.5191 18.4152C77.5191 16.4096 77.5054 16.3442 77.4664 16.1068C77.4136 15.6173 77.1361 15.5783 76.7141 15.4728C76.5696 15.4337 76.4251 15.4063 76.4251 15.3145C76.4251 15.2227 76.6087 15.1426 76.7542 15.1426C76.807 15.1426 77.7565 15.17 77.7829 15.17C78.2977 15.17 79.3812 15.0898 80.0923 15.0898C81.0555 15.0898 81.8341 15.2227 82.427 15.6701C82.7699 15.9211 83.1518 16.4898 83.1518 17.2009C83.1518 18.2443 82.5989 18.8509 81.7412 19.1663ZM66.449 15.1309C66.7539 15.1309 67.505 15.1837 67.9397 15.1837C68.3353 15.1837 69.3523 15.1309 69.6161 15.1309C69.9052 15.1309 69.9052 15.2618 69.9052 15.2755C69.9052 15.4074 69.6952 15.4601 69.6551 15.4728C69.0622 15.6184 68.9567 15.6447 68.9303 16.436C68.904 17.07 68.904 18.2696 68.904 18.8245C68.904 19.0228 68.9567 19.0756 68.9958 19.0756C69.0358 19.0756 69.2468 18.9173 69.3123 18.8498C70.248 18.0449 71.225 17.1091 71.8443 16.4096C72.2536 15.9876 72.3327 15.6447 71.6206 15.5002C71.4623 15.4728 71.3706 15.3673 71.3706 15.2892C71.3706 15.2364 71.4761 15.1573 71.6607 15.1573C71.8443 15.1573 72.5184 15.1837 72.703 15.1837C72.9404 15.1964 74.141 15.0909 74.5641 15.0909C74.7751 15.0909 74.8668 15.17 74.8668 15.2364C74.8668 15.3282 74.7613 15.4074 74.524 15.4474C73.7844 15.592 73.2168 15.8821 72.4245 16.5278C71.858 16.9783 71.225 17.5701 70.5656 18.2559C70.5255 18.297 70.5118 18.336 70.5656 18.4553C70.8694 18.9026 72.2663 20.8301 73.0987 21.8059C73.8245 22.6763 74.1009 23.0192 75.0114 23.1774C75.196 23.2049 75.3542 23.3104 75.3542 23.3758C75.3542 23.5214 75.1306 23.5868 74.8932 23.5868C74.141 23.5868 73.2305 23.4813 72.5047 23.4813C72.0299 23.4813 71.6206 23.5214 71.3041 23.5214C71.1722 23.5214 70.9876 23.4412 70.9876 23.3631C70.9876 23.2175 71.1596 23.1648 71.2514 23.1521C71.5678 23.0994 71.7261 22.9802 71.5415 22.7027C70.9486 21.8714 69.4441 19.8141 69.1941 19.5366C69.0622 19.4048 69.0474 19.3647 68.9831 19.3647C68.9303 19.3647 68.904 19.4448 68.904 19.5894C68.904 21.0674 68.8892 21.7395 68.9567 22.3725C69.0095 22.8219 69.1804 23.0329 69.7079 23.1521C69.9579 23.1912 70.0107 23.323 70.0107 23.3357C70.0107 23.4285 69.8661 23.5214 69.6815 23.5214C69.4315 23.5214 68.0726 23.4813 67.6759 23.4813C67.294 23.4813 66.7138 23.534 66.3034 23.534C66.2253 23.534 65.9742 23.4813 65.9742 23.3758C65.9742 23.2703 66.0924 23.2049 66.3034 23.1648C66.9775 23.0065 67.083 22.9411 67.1094 21.9631C67.1358 21.1202 67.1622 20.235 67.1622 18.9828C67.1622 18.297 67.1885 17.3591 67.1474 16.5953C67.0946 15.8294 67.0567 15.6057 66.5144 15.5002C66.2116 15.4337 66.1451 15.3673 66.1451 15.2892C66.1451 15.1573 66.3561 15.1309 66.449 15.1309Z" fill="white"/>
</g>
</svg>
