<svg width="30" height="30" viewBox="0 0 30 30" fill="none" xmlns="http://www.w3.org/2000/svg">
<path d="M24 29.9044C23.8405 29.9044 23.1453 29.9719 23 29.9044C22.8547 29.8368 23.1051 30.0274 23 29.9044L19 24.9203C17.5599 25.3003 16.4871 25.9187 15 25.9171C11.0355 25.9171 6.82435 24.3281 4 21.9299C1.11745 19.4819 0 16.4575 0 12.9586C0 9.45957 1.12044 6.43669 4 3.98725C6.82435 1.58905 11.0355 0 15 0C18.9645 0 23.1779 1.58905 26 3.98725C28.8825 6.43516 30 9.46033 30 12.9586C30 16.6932 28.2183 20.4696 25 22.9267V28.9075C25 29.2119 25.2099 29.6892 25 29.9044C24.7901 30.1196 24.2969 29.9044 24 29.9044ZM20 22.9267C20.1595 22.9266 19.8547 22.8591 20 22.9267C20.1453 22.9942 20.8949 22.8036 21 22.9267L23 25.9171V21.9299C23.0002 21.7429 22.9146 22.0951 23 21.9299C23.0854 21.7647 22.8491 21.0381 23 20.9331C25.9012 18.899 28 16.108 28 12.9586C28 7.08738 22.0359 1.99362 15 1.99362C7.96413 1.99362 2 7.08738 2 12.9586C2 18.8297 7.96413 23.9235 15 23.9235C16.5105 23.927 17.554 23.3745 19 22.9267C19.1056 22.8928 19.8894 22.9273 20 22.9267Z" fill="#1E1E1E"/>
<path d="M11.9999 14.9922C11.9675 14.9922 12.031 14.9969 11.9999 14.9922C11.9688 14.9876 12.0303 14.9982 11.9999 14.9922C12.0276 15.0015 11.9695 14.9863 11.9999 14.9922C12.0296 15.0048 11.9721 14.983 11.9999 14.9922C12.0283 15.0074 11.9701 14.9797 11.9999 14.9922C11.9711 14.9771 11.0349 15.0102 11.0078 14.9922C10.9813 14.9744 11.0329 15.0127 11.0078 14.9922C10.9827 14.9717 11.0309 15.0154 11.0078 14.9922C10.9846 14.9691 11.0289 15.0173 11.0078 14.9922C10.9866 14.9671 11.0256 15.0187 11.0078 14.9922C10.9898 14.9651 11.0229 14.0288 11.0078 14C10.9924 13.9714 11.0201 14.0295 11.0078 14C10.9954 13.9702 11.017 14.0309 11.0078 14C10.9979 13.969 11.0138 14.032 11.0078 14C11.001 13.9684 11.0107 14.0322 11.0078 14C11.0044 13.9675 11.0079 14.0327 11.0078 14C11.0079 13.9675 11.0043 14.0323 11.0078 14C11.0143 13.9352 10.9888 14.0623 11.0078 14C11.017 13.9691 10.9954 14.0298 11.0078 14C11.0206 13.9705 10.9928 14.0286 11.0078 14C11.0229 13.9712 10.9898 13.0349 11.0078 13.0078C11.0256 12.9813 10.9873 13.0329 11.0078 13.0078C11.0283 12.9827 10.9846 13.0309 11.0078 13.0078C11.0309 12.9846 10.9827 13.0289 11.0078 13.0078C11.0329 12.9866 10.9813 13.0256 11.0078 13.0078C11.0348 12.9896 11.971 13.0226 11.9999 13.0078C12.0285 12.9928 11.9704 13.0206 11.9999 13.0078C12.0299 12.9951 11.9687 13.0171 11.9999 13.0078C12.0303 12.9985 11.9682 13.0144 11.9999 13.0078C12.0316 13.0012 11.9695 13.0111 11.9999 13.0078C12.0647 13.0012 11.9351 13.0012 11.9999 13.0078C12.0316 13.0111 11.9701 13.0018 11.9999 13.0078C12.0296 13.0137 11.9715 12.9985 11.9999 13.0078C12.0308 13.0172 11.9701 12.9952 11.9999 13.0078C12.0296 13.0203 11.9715 12.9926 11.9999 13.0078C12.0285 13.0228 12.9652 12.9898 12.992 13.0078C13.019 13.0256 12.967 12.9873 12.992 13.0078C13.0171 13.0283 12.9689 12.9846 12.992 13.0078C13.0151 13.0309 12.9709 12.9827 12.992 13.0078C13.0132 13.0329 12.9742 12.9813 12.992 13.0078C13.0099 13.0349 12.9769 13.9712 12.992 14C13.007 14.0286 12.9792 13.9705 12.992 14C13.0046 14.0297 12.9821 13.9696 12.992 14C13.0019 14.0304 12.9854 13.9716 12.992 14C13.005 14.0637 12.9922 13.935 12.992 14C12.9921 14.0327 12.9952 13.9675 12.992 14C12.9888 14.0322 12.9985 13.9683 12.992 14C12.9854 14.0317 13.0013 13.9716 12.992 14C12.9828 14.0284 13.0046 13.9703 12.992 14C12.9794 14.0297 13.0072 13.9716 12.992 14C12.9769 14.0288 13.0099 14.9651 12.992 14.9922C12.9742 15.0187 13.0125 14.9671 12.992 14.9922C12.9715 15.0173 13.0151 14.9691 12.992 14.9922C12.9689 15.0154 13.0171 14.9711 12.992 14.9922C12.967 15.0127 13.019 14.9744 12.992 14.9922C12.9647 15.0099 12.0281 14.9768 11.9999 14.9922C12.0296 14.9797 11.9715 15.0074 11.9999 14.9922C12.0303 14.9823 11.9701 15.0048 11.9999 14.9922C12.0316 14.9856 11.9695 15.0021 11.9999 14.9922C12.0296 14.9889 11.9682 14.9988 11.9999 14.9922C12.0336 14.9922 11.9701 14.9955 11.9999 14.9922Z" fill="#1E1E1E"/>
<path d="M18.9997 14.9872C18.9673 14.9873 19.032 14.9903 18.9997 14.9872C18.9674 14.9839 19.0301 14.9931 18.9997 14.9872C19.0275 14.9964 18.9694 14.9812 18.9997 14.9872C19.0294 14.9996 18.972 14.9779 18.9997 14.9872C19.0281 15.0023 18.97 14.9747 18.9997 14.9872C18.9428 14.9568 18.0577 15.0276 18.0075 14.9872C17.9825 14.9668 18.03 15.0102 18.0075 14.9872C17.9843 14.9642 18.0283 15.0124 18.0075 14.9872C17.9871 14.9622 18.0253 15.0135 18.0075 14.9872C17.9896 14.9602 18.0226 14.0287 18.0075 14C17.9926 13.9715 18.0203 14.0294 18.0075 14C17.9956 13.9704 18.0168 14.0303 18.0075 14C17.9977 13.9692 18.0135 14.0318 18.0075 14C17.9948 13.9366 18.008 14.0647 18.0075 14C18.0076 13.9675 18.0041 14.0323 18.0075 14C18.0108 13.968 18.0011 14.0315 18.0075 14C18.0135 13.9682 17.9977 14.0308 18.0075 14C18.0168 13.9698 17.9956 14.0296 18.0075 14C18.0194 13.9704 17.9924 14.0283 18.0075 14C18.0226 13.9714 17.9896 13.0399 18.0075 13.0129C18.0253 12.9866 17.9871 13.0379 18.0075 13.0129C18.0283 12.9877 17.9843 13.0359 18.0075 13.0129C18.03 12.9905 17.9825 13.0339 18.0075 13.0129C18.0579 12.9724 18.9426 13.0432 18.9997 13.0129C19.0281 12.9977 18.9694 13.0254 18.9997 13.0129C19.0301 13.0004 18.9687 13.0227 18.9997 13.0129C19.0308 13.003 18.9681 13.0194 18.9997 13.0129C19.0314 13.0063 18.9694 13.0162 18.9997 13.0129C19.0656 13.0067 18.9339 13.0067 18.9997 13.0129C19.0314 13.0162 18.97 13.0069 18.9997 13.0129C19.0294 13.0188 18.9714 13.0037 18.9997 13.0129C19.0281 13.0221 18.97 13.0004 18.9997 13.0129C19.0294 13.0254 18.9714 12.9977 18.9997 13.0129C19.0281 13.028 19.9649 12.9951 19.992 13.0129C20.019 13.0304 19.9671 12.9923 19.992 13.0129C20.017 13.0333 19.9689 12.9898 19.992 13.0129C20.0151 13.0359 19.9708 12.9879 19.992 13.0129C20.0131 13.0379 19.9741 12.9866 19.992 13.0129C20.0101 13.0398 19.9767 13.9713 19.992 14C20.0065 14.0283 19.9801 13.9704 19.992 14C20.0045 14.0297 19.9825 13.9692 19.992 14C20.0012 14.0309 19.9854 13.9717 19.992 14C19.9986 14.0283 19.9887 13.9704 19.992 14C19.9951 14.0324 19.9921 13.9675 19.992 14C19.9921 14.0323 19.9952 13.9679 19.992 14C19.9887 14.0322 19.9979 13.9698 19.992 14C19.986 14.0303 20.0012 13.9717 19.992 14C19.9825 14.0308 20.0045 13.9703 19.992 14C19.9801 14.0296 20.0065 13.9717 19.992 14C19.9767 14.0287 20.0101 14.9602 19.992 14.9872C19.9741 15.0135 20.0124 14.9622 19.992 14.9872C19.9715 15.0121 20.0151 14.9641 19.992 14.9872C19.9689 15.0102 20.017 14.9661 19.992 14.9872C19.9671 15.0077 20.019 14.9696 19.992 14.9872C19.9651 15.0047 19.0283 14.9718 18.9997 14.9872C19.0294 14.9747 18.9714 15.0023 18.9997 14.9872C19.0301 14.9773 18.97 14.9996 18.9997 14.9872C19.0314 14.9806 18.9694 14.997 18.9997 14.9872C19.0294 14.9839 18.9681 14.9937 18.9997 14.9872C19.0337 14.9874 18.966 14.9905 18.9997 14.9872Z" fill="#1E1E1E"/>
<path d="M14.9997 14.9219C14.7368 14.9213 14.1935 15.0979 14.007 14.9219C13.9837 14.8999 14.0278 14.946 14.007 14.9219C13.9865 14.898 14.0255 14.947 14.007 14.9219C13.9885 14.8968 14.0222 14.006 14.007 13.9784C13.9917 13.9515 14.019 14.0067 14.007 13.9784C13.9944 13.95 14.0164 14.0078 14.007 13.9784C13.9977 13.9489 14.0136 14.0054 14.007 13.9784C14.0005 13.9483 14.0102 14.009 14.007 13.9784C14.0006 13.9157 14.0006 14.0411 14.007 13.9784C14.0102 13.9478 14.0005 14.0085 14.007 13.9784C14.0136 13.9482 13.9977 14.0054 14.007 13.9784C14.0164 13.949 13.9944 14.0067 14.007 13.9784C14.019 13.95 13.9917 14.0053 14.007 13.9784C14.0222 13.9507 13.9898 13.0606 14.007 13.0349C14.0242 13.0091 13.9865 13.0587 14.007 13.0349C14.0278 13.0108 13.9837 13.0568 14.007 13.0349C14.111 12.9368 14.8617 13.0818 14.9997 13.0349C15.1378 12.988 14.8538 13.0217 14.9997 13.0349C15.0321 13.038 14.9693 13.0292 14.9997 13.0349C15.0301 13.0405 14.9686 13.0261 14.9997 13.0349C15.0308 13.0437 14.97 13.0229 14.9997 13.0349C15.0295 13.0468 14.9713 13.0204 14.9997 13.0349C15.057 13.0639 15.9419 12.9962 15.9925 13.0349C16.0176 13.0543 15.97 13.0129 15.9925 13.0349C16.0157 13.0568 15.9717 13.0108 15.9925 13.0349C16.013 13.0587 15.9746 13.0097 15.9925 13.0349C16.0104 13.0607 15.9773 13.951 15.9925 13.9784C16.0074 14.0056 15.9797 13.9503 15.9925 13.9784C16.0044 14.0067 15.9832 13.9495 15.9925 13.9784C16.0023 14.0078 15.9865 13.948 15.9925 13.9784C15.9989 14.0085 15.9892 13.9478 15.9925 13.9784C15.9997 14.041 15.9997 13.9158 15.9925 13.9784C15.9892 14.009 15.9989 13.9483 15.9925 13.9784C15.9865 14.0088 16.0023 13.9489 15.9925 13.9784C15.9832 14.0073 16.0044 13.9501 15.9925 13.9784C15.9806 14.0067 16.0077 13.9514 15.9925 13.9784C15.9773 14.0058 16.0104 14.8961 15.9925 14.9219C15.9746 14.947 16.013 14.898 15.9925 14.9219C15.9717 14.946 16.0157 14.8999 15.9925 14.9219C15.97 14.9433 16.0176 14.9012 15.9925 14.9219C15.9419 14.9606 15.057 14.8929 14.9997 14.9219C15.0295 14.91 14.9713 14.9363 14.9997 14.9219C15.0308 14.9125 14.97 14.9338 14.9997 14.9219C15.0275 14.9156 14.9686 14.9313 14.9997 14.9219C15.0301 14.9188 14.9719 14.9282 14.9997 14.9219C15.0322 14.9224 14.9674 14.9245 14.9997 14.9219Z" fill="#1E1E1E"/>
</svg>
