<svg width="28" height="28" viewBox="0 0 28 28" fill="none" xmlns="http://www.w3.org/2000/svg">
<path d="M19 2C20.6671 2 22.8212 2.8212 24 4C25.1788 5.1788 26 7.33292 26 9V19C26 20.6671 25.1788 22.8212 24 24C22.8212 25.1788 20.6671 26 19 26H9C7.33292 26 5.1788 25.1788 4 24C2.8212 22.8212 2 20.6671 2 19V9C2 7.33292 2.8212 5.1788 4 4C5.1788 2.8212 7.33292 2 9 2H19ZM19 0H9C6.7288 0.00678312 4.60599 1.39401 3 3C1.39401 4.60599 0.00678312 6.7288 0 9V19C0.00678312 21.2712 1.39401 23.394 3 25C4.60599 26.606 6.7288 27.9932 9 28H19C21.2712 27.9932 23.394 26.606 25 25C26.606 23.394 27.9932 21.2712 28 19V9C27.9932 6.7288 26.606 4.60599 25 3C23.394 1.39401 21.2712 0.00678312 19 0Z" fill="white"/>
<path d="M21.0285 5.06966C20.7464 5.06966 21.2631 4.91293 21.0285 5.06966C20.794 5.22639 20.1856 5.75993 20.0776 6.02056C19.9697 6.2812 20.0226 6.69478 20.0776 6.97147C20.1327 7.24815 19.8781 7.72289 20.0776 7.92237C20.2771 8.12185 20.7518 7.86734 21.0285 7.92237C21.3052 7.97741 21.7188 8.03033 21.9794 7.92237C22.2401 7.81442 22.7736 7.20603 22.9303 6.97147C23.0871 6.7369 22.9303 6.30267 22.9303 6.02056C22.9303 5.83325 23.002 6.19362 22.9303 6.02056C22.8587 5.84751 23.0628 5.20211 22.9303 5.06966C22.7979 4.93721 22.1525 5.14134 21.9794 5.06966C21.8064 4.99798 21.2158 5.06966 21.0285 5.06966Z" fill="white"/>
<path d="M14.0353 8.9913C15.0523 8.99072 16.1762 9.42226 17.0221 9.98694C17.8679 10.5516 18.6238 12.0344 19.0132 12.9739C19.4027 13.9134 20.2071 14.9633 20.0088 15.9608C19.8106 16.9584 18.7368 17.2329 18.0177 17.9521C17.2985 18.6713 16.0284 19.7451 15.0309 19.9434C14.0334 20.1417 13.9792 19.3372 13.0397 18.9478C12.1003 18.5583 10.6176 17.8024 10.053 16.9565C9.48834 16.1106 9.05683 14.9866 9.0574 13.9695C9.05971 12.6075 10.0855 11.9457 11.0486 10.9826C12.0116 10.0195 12.6734 8.9936 14.0353 8.9913ZM14.0353 7C12.559 7.00288 11.2791 7.17325 10.053 7.99565C8.82692 8.81805 8.62466 10.6133 8.06182 11.9782C7.49898 13.3431 6.77625 14.5132 7.06623 15.9608C7.35622 17.4085 8.01227 18.9006 9.0574 19.9434C10.1025 20.9862 11.5915 21.6481 13.0397 21.9347C14.488 22.2213 15.6586 21.5051 17.0221 20.939C18.3856 20.373 20.1849 20.1758 21.0044 18.9478C21.8239 17.7197 22.0006 15.4459 22 13.9695C21.9996 12.9879 21.3807 12.8848 21.0044 11.9782C20.6281 11.0716 20.7037 9.68459 20.0088 8.9913C19.314 8.29801 17.9295 8.36988 17.0221 7.99565C16.1147 7.62142 15.0169 6.99809 14.0353 7Z" fill="white"/>
</svg>
