<svg width="30" height="30" viewBox="0 0 30 30" fill="none" xmlns="http://www.w3.org/2000/svg">
<path d="M14.9993 0C8.9088 0 5 4.26601 5 9.96986C5 17.6405 12.0707 27.0441 13.9993 28.9126C14.1008 29.0109 14.7962 28.9126 14.9993 28.9126C15.2023 28.9126 14.8977 29.1093 14.9993 28.9126C16.0143 27.8308 24.9985 18.0339 24.9985 9.96986C25.1 3.28259 19.9731 0 14.9993 0ZM14.9993 26.9186C12.6646 24.2634 6.99985 16.4604 6.99985 9.96986C6.99985 4.95441 9.72086 0.996986 14.9993 0.996986C18.8565 0.996986 23.9986 3.97099 23.9986 9.96986C23.9986 15.772 18.552 22.9849 14.9993 26.9186ZM14.9993 5.98191C12.7661 5.98191 10.9996 7.80633 10.9996 9.96986C10.9996 12.1334 12.7661 13.9578 14.9993 13.9578C17.2324 13.9578 18.999 12.1334 18.999 9.96986C18.999 7.80633 17.2324 5.98191 14.9993 5.98191ZM14.9993 11.9638C13.5782 11.9638 12.9994 11.3466 12.9994 9.96986C12.9994 8.59307 13.5782 6.9789 14.9993 6.9789C16.4204 6.9789 17.999 8.59307 17.999 9.96986C17.999 11.3466 16.4204 11.9638 14.9993 11.9638Z" fill="#1E1E1E"/>
</svg>
