<svg width="30" height="30" viewBox="0 0 30 30" fill="none" xmlns="http://www.w3.org/2000/svg">
<g clip-path="url(#clip0_64_61)">
<path d="M18.764 22.103C18.764 22.103 21.0926 20.461 21.7246 20.1289C22.3548 19.7955 22.315 19.8867 22.7115 20.1289C23.3119 20.4962 29.1951 23.7802 29.6196 24.0772C30.0441 24.3748 30.2033 25.2188 29.6196 26.0514C29.0383 26.8839 25.8216 30.0349 24.6852 29.9997C23.547 29.9627 18.806 30.0442 9.88216 21.1159C0.960124 12.1906 1.03668 7.44814 1.00031 6.30966C0.963942 5.17178 4.11546 1.9563 4.9478 1.37424C5.78133 0.792772 6.62581 0.965124 6.92154 1.37424C7.25782 1.84 10.5041 7.70774 10.869 8.28383C11.1188 8.67744 11.2023 8.63996 10.869 9.27092C10.5375 9.90307 8.89528 12.2322 8.89528 12.2322C8.89528 12.2322 10.5349 13.8726 13.8296 17.1676C17.125 20.4632 18.764 22.103 18.764 22.103Z" stroke="#1E1E1E" stroke-width="2" stroke-miterlimit="10"/>
</g>
<defs>
<clipPath id="clip0_64_61">
<rect width="30" height="30" fill="white"/>
</clipPath>
</defs>
</svg>
    