<svg width="32" height="28" viewBox="0 0 32 28" fill="none" xmlns="http://www.w3.org/2000/svg">
<path d="M25 27.9107C24.8298 27.9108 25.155 27.9738 25 27.9107C24.845 27.8477 25.1121 28.0256 25 27.9107L21 23.9235C19.4639 24.2782 17.5862 23.925 16 23.9235C11.7712 23.9235 8.01264 23.1714 5 20.9331C1.92528 18.6483 0 15.2275 0 11.9617C0 8.69602 1.92846 5.27659 5 2.99044C8.01264 0.752122 11.7712 0 16 0C20.2288 0 23.9898 0.752122 27 2.99044C30.0747 5.27516 32 8.69673 32 11.9617C32 15.4474 30.4329 18.6398 27 20.9331V26.9139C27 27.198 26.2239 27.7099 26 27.9107C25.7761 28.1116 25.3166 27.9107 25 27.9107ZM21 20.9331C21.1702 20.933 21.845 21.8668 22 21.9299C22.155 21.9929 21.8879 21.815 22 21.9299L24 23.9235V20.9331C24.0002 20.7585 23.9089 20.0904 24 19.9362C24.0911 19.7821 24.8391 20.0343 25 19.9362C28.0946 18.0378 30 14.9012 30 11.9617C30 6.48198 23.5049 1.99362 16 1.99362C8.49508 1.99362 2 6.48198 2 11.9617C2 17.4415 8.49508 21.9299 16 21.9299C17.6112 21.9331 19.4576 21.351 21 20.9331C20.882 20.9337 21.1126 20.9015 21 20.9331Z" fill="white"/>
<path d="M12.9999 13.9922C12.9675 13.9922 13.031 13.9969 12.9999 13.9922C12.9688 13.9876 13.0303 13.9982 12.9999 13.9922C13.0276 14.0015 12.9695 13.9863 12.9999 13.9922C13.0296 14.0048 12.9721 13.983 12.9999 13.9922C13.0283 14.0074 12.9701 13.9797 12.9999 13.9922C12.9711 13.9771 12.0349 14.0102 12.0078 13.9922C11.9813 13.9744 12.0329 14.0127 12.0078 13.9922C11.9827 13.9717 12.0309 14.0154 12.0078 13.9922C11.9846 13.9691 12.0289 14.0173 12.0078 13.9922C11.9866 13.9671 12.0256 14.0187 12.0078 13.9922C11.9898 13.9651 12.0229 13.0288 12.0078 13C11.9924 12.9714 12.0201 13.0295 12.0078 13C11.9954 12.9702 12.017 13.0309 12.0078 13C11.9979 12.969 12.0138 13.032 12.0078 13C12.001 12.9684 12.0107 13.0322 12.0078 13C12.0044 12.9675 12.0079 13.0327 12.0078 13C12.0079 12.9675 12.0043 13.0323 12.0078 13C12.0143 12.9352 11.9888 13.0623 12.0078 13C12.017 12.9691 11.9954 13.0298 12.0078 13C12.0206 12.9705 11.9928 13.0286 12.0078 13C12.0229 12.9712 11.9898 12.0349 12.0078 12.0078C12.0256 11.9813 11.9873 12.0329 12.0078 12.0078C12.0283 11.9827 11.9846 12.0309 12.0078 12.0078C12.0309 11.9846 11.9827 12.0289 12.0078 12.0078C12.0329 11.9866 11.9813 12.0256 12.0078 12.0078C12.0348 11.9896 12.971 12.0226 12.9999 12.0078C13.0285 11.9928 12.9704 12.0206 12.9999 12.0078C13.0299 11.9951 12.9687 12.0171 12.9999 12.0078C13.0303 11.9985 12.9682 12.0144 12.9999 12.0078C13.0316 12.0012 12.9695 12.0111 12.9999 12.0078C13.0647 12.0012 12.9351 12.0012 12.9999 12.0078C13.0316 12.0111 12.9701 12.0018 12.9999 12.0078C13.0296 12.0137 12.9715 11.9985 12.9999 12.0078C13.0308 12.0172 12.9701 11.9952 12.9999 12.0078C13.0296 12.0203 12.9715 11.9926 12.9999 12.0078C13.0285 12.0228 13.9652 11.9898 13.992 12.0078C14.019 12.0256 13.967 11.9873 13.992 12.0078C14.0171 12.0283 13.9689 11.9846 13.992 12.0078C14.0151 12.0309 13.9709 11.9827 13.992 12.0078C14.0132 12.0329 13.9742 11.9813 13.992 12.0078C14.0099 12.0349 13.9769 12.9712 13.992 13C14.007 13.0286 13.9792 12.9705 13.992 13C14.0046 13.0297 13.9821 12.9696 13.992 13C14.0019 13.0304 13.9854 12.9716 13.992 13C14.005 13.0637 13.9922 12.935 13.992 13C13.9921 13.0327 13.9952 12.9675 13.992 13C13.9888 13.0322 13.9985 12.9683 13.992 13C13.9854 13.0317 14.0013 12.9716 13.992 13C13.9828 13.0284 14.0046 12.9703 13.992 13C13.9794 13.0297 14.0072 12.9716 13.992 13C13.9769 13.0288 14.0099 13.9651 13.992 13.9922C13.9742 14.0187 14.0125 13.9671 13.992 13.9922C13.9715 14.0173 14.0151 13.9691 13.992 13.9922C13.9689 14.0154 14.0171 13.9711 13.992 13.9922C13.967 14.0127 14.019 13.9744 13.992 13.9922C13.9647 14.0099 13.0281 13.9768 12.9999 13.9922C13.0296 13.9797 12.9715 14.0074 12.9999 13.9922C13.0303 13.9823 12.9701 14.0048 12.9999 13.9922C13.0316 13.9856 12.9695 14.0021 12.9999 13.9922C13.0296 13.9889 12.9682 13.9988 12.9999 13.9922C13.0336 13.9922 12.9701 13.9955 12.9999 13.9922Z" fill="white"/>
<path d="M19.9997 13.9872C19.9673 13.9873 20.032 13.9903 19.9997 13.9872C19.9674 13.9839 20.0301 13.9931 19.9997 13.9872C20.0275 13.9964 19.9694 13.9812 19.9997 13.9872C20.0294 13.9996 19.972 13.9779 19.9997 13.9872C20.0281 14.0023 19.97 13.9747 19.9997 13.9872C19.9428 13.9568 19.0577 14.0276 19.0075 13.9872C18.9825 13.9668 19.03 14.0102 19.0075 13.9872C18.9843 13.9642 19.0283 14.0124 19.0075 13.9872C18.9871 13.9622 19.0253 14.0135 19.0075 13.9872C18.9896 13.9602 19.0226 13.0287 19.0075 13C18.9926 12.9715 19.0203 13.0294 19.0075 13C18.9956 12.9704 19.0168 13.0303 19.0075 13C18.9977 12.9692 19.0135 13.0318 19.0075 13C18.9948 12.9366 19.008 13.0647 19.0075 13C19.0076 12.9675 19.0041 13.0323 19.0075 13C19.0108 12.968 19.0011 13.0315 19.0075 13C19.0135 12.9682 18.9977 13.0308 19.0075 13C19.0168 12.9698 18.9956 13.0296 19.0075 13C19.0194 12.9704 18.9924 13.0283 19.0075 13C19.0226 12.9714 18.9896 12.0399 19.0075 12.0129C19.0253 11.9866 18.9871 12.0379 19.0075 12.0129C19.0283 11.9877 18.9843 12.0359 19.0075 12.0129C19.03 11.9905 18.9825 12.0339 19.0075 12.0129C19.0579 11.9724 19.9426 12.0432 19.9997 12.0129C20.0281 11.9977 19.9694 12.0254 19.9997 12.0129C20.0301 12.0004 19.9687 12.0227 19.9997 12.0129C20.0308 12.003 19.9681 12.0194 19.9997 12.0129C20.0314 12.0063 19.9694 12.0162 19.9997 12.0129C20.0656 12.0067 19.9339 12.0067 19.9997 12.0129C20.0314 12.0162 19.97 12.0069 19.9997 12.0129C20.0294 12.0188 19.9714 12.0037 19.9997 12.0129C20.0281 12.0221 19.97 12.0004 19.9997 12.0129C20.0294 12.0254 19.9714 11.9977 19.9997 12.0129C20.0281 12.028 20.9649 11.9951 20.992 12.0129C21.019 12.0304 20.9671 11.9923 20.992 12.0129C21.017 12.0333 20.9689 11.9898 20.992 12.0129C21.0151 12.0359 20.9708 11.9879 20.992 12.0129C21.0131 12.0379 20.9741 11.9866 20.992 12.0129C21.0101 12.0398 20.9767 12.9713 20.992 13C21.0065 13.0283 20.9801 12.9704 20.992 13C21.0045 13.0297 20.9825 12.9692 20.992 13C21.0012 13.0309 20.9854 12.9717 20.992 13C20.9986 13.0283 20.9887 12.9704 20.992 13C20.9951 13.0324 20.9921 12.9675 20.992 13C20.9921 13.0323 20.9952 12.9679 20.992 13C20.9887 13.0322 20.9979 12.9698 20.992 13C20.986 13.0303 21.0012 12.9717 20.992 13C20.9825 13.0308 21.0045 12.9703 20.992 13C20.9801 13.0296 21.0065 12.9717 20.992 13C20.9767 13.0287 21.0101 13.9602 20.992 13.9872C20.9741 14.0135 21.0124 13.9622 20.992 13.9872C20.9715 14.0121 21.0151 13.9641 20.992 13.9872C20.9689 14.0102 21.017 13.9661 20.992 13.9872C20.9671 14.0077 21.019 13.9696 20.992 13.9872C20.9651 14.0047 20.0283 13.9718 19.9997 13.9872C20.0294 13.9747 19.9714 14.0023 19.9997 13.9872C20.0301 13.9773 19.97 13.9996 19.9997 13.9872C20.0314 13.9806 19.9694 13.997 19.9997 13.9872C20.0294 13.9839 19.9681 13.9937 19.9997 13.9872C20.0337 13.9874 19.966 13.9905 19.9997 13.9872Z" fill="white"/>
<path d="M15.9997 13.9219C15.7368 13.9213 15.1935 14.0979 15.007 13.9219C14.9837 13.8999 15.0278 13.946 15.007 13.9219C14.9865 13.898 15.0255 13.947 15.007 13.9219C14.9885 13.8968 15.0222 13.006 15.007 12.9784C14.9917 12.9515 15.019 13.0067 15.007 12.9784C14.9944 12.95 15.0164 13.0078 15.007 12.9784C14.9977 12.9489 15.0136 13.0054 15.007 12.9784C15.0005 12.9483 15.0102 13.009 15.007 12.9784C15.0006 12.9157 15.0006 13.0411 15.007 12.9784C15.0102 12.9478 15.0005 13.0085 15.007 12.9784C15.0136 12.9482 14.9977 13.0054 15.007 12.9784C15.0164 12.949 14.9944 13.0067 15.007 12.9784C15.019 12.95 14.9917 13.0053 15.007 12.9784C15.0222 12.9507 14.9898 12.0606 15.007 12.0349C15.0242 12.0091 14.9865 12.0587 15.007 12.0349C15.0278 12.0108 14.9837 12.0568 15.007 12.0349C15.111 11.9368 15.8617 12.0818 15.9997 12.0349C16.1378 11.988 15.8538 12.0217 15.9997 12.0349C16.0321 12.038 15.9693 12.0292 15.9997 12.0349C16.0301 12.0405 15.9686 12.0261 15.9997 12.0349C16.0308 12.0437 15.97 12.0229 15.9997 12.0349C16.0295 12.0468 15.9713 12.0204 15.9997 12.0349C16.057 12.0639 16.9419 11.9962 16.9925 12.0349C17.0176 12.0543 16.97 12.0129 16.9925 12.0349C17.0157 12.0568 16.9717 12.0108 16.9925 12.0349C17.013 12.0587 16.9746 12.0097 16.9925 12.0349C17.0104 12.0607 16.9773 12.951 16.9925 12.9784C17.0074 13.0056 16.9797 12.9503 16.9925 12.9784C17.0044 13.0067 16.9832 12.9495 16.9925 12.9784C17.0023 13.0078 16.9865 12.948 16.9925 12.9784C16.9989 13.0085 16.9892 12.9478 16.9925 12.9784C16.9997 13.041 16.9997 12.9158 16.9925 12.9784C16.9892 13.009 16.9989 12.9483 16.9925 12.9784C16.9865 13.0088 17.0023 12.9489 16.9925 12.9784C16.9832 13.0073 17.0044 12.9501 16.9925 12.9784C16.9806 13.0067 17.0077 12.9514 16.9925 12.9784C16.9773 13.0058 17.0104 13.8961 16.9925 13.9219C16.9746 13.947 17.013 13.898 16.9925 13.9219C16.9717 13.946 17.0157 13.8999 16.9925 13.9219C16.97 13.9433 17.0176 13.9012 16.9925 13.9219C16.9419 13.9606 16.057 13.8929 15.9997 13.9219C16.0295 13.91 15.9713 13.9363 15.9997 13.9219C16.0308 13.9125 15.97 13.9338 15.9997 13.9219C16.0275 13.9156 15.9686 13.9313 15.9997 13.9219C16.0301 13.9188 15.9719 13.9282 15.9997 13.9219C16.0322 13.9224 15.9674 13.9245 15.9997 13.9219Z" fill="white"/>
</svg>
